<?xml version="1.0" standalone="no"?>
<!DOCTYPE svg PUBLIC "-//W3C//DTD SVG 20010904//EN"
 "http://www.w3.org/TR/2001/REC-SVG-20010904/DTD/svg10.dtd">
<svg version="1.0" xmlns="http://www.w3.org/2000/svg"
 width="1920.000000pt" height="1080.000000pt" viewBox="0 0 1920.000000 1080.000000"
 preserveAspectRatio="xMidYMid meet">

<g transform="translate(0.000000,1080.000000) scale(0.100000,-0.100000)"
fill="#000000" stroke="none">
<path d="M0 5400 l0 -5400 9600 0 9600 0 0 5400 0 5400 -9600 0 -9600 0 0
-5400z m8448 4219 c636 -327 924 -529 1467 -1030 142 -130 173 -165 189 -205
11 -27 63 -140 117 -250 l96 -201 90 -74 c49 -41 162 -130 250 -199 157 -123
161 -126 182 -185 14 -39 43 -86 84 -135 64 -76 485 -613 586 -747 30 -40 58
-73 63 -73 4 0 8 -4 8 -10 0 -5 -7 -10 -15 -10 -14 0 -37 -62 -50 -141 -11
-60 -18 -66 -60 -46 -20 9 -39 17 -44 17 -4 0 -28 -30 -52 -67 -23 -38 -46
-70 -49 -73 -3 -3 -16 -22 -29 -42 -12 -21 -29 -38 -36 -38 -16 0 -177 62
-172 66 2 2 25 -3 51 -11 27 -8 52 -12 57 -9 5 3 9 0 9 -5 0 -6 5 -11 10 -11
6 0 10 7 10 15 0 14 12 20 33 16 5 -1 6 3 3 8 -4 5 0 12 6 14 9 4 10 6 1 6 -6
1 -14 -3 -18 -9 -9 -14 -35 0 -35 19 0 13 2 13 9 2 7 -10 12 -11 27 -1 11 6
12 10 4 7 -8 -2 -22 2 -30 11 -12 14 -11 15 8 10 12 -4 20 -2 16 3 -3 5 0 9 5
9 6 0 11 -6 11 -12 0 -9 3 -8 9 2 12 18 5 31 -14 23 -11 -4 -13 -1 -9 11 4 10
13 15 20 12 9 -4 14 2 14 15 0 11 -4 18 -8 15 -10 -6 -8 36 2 52 4 7 4 17 0
23 -4 7 -1 10 7 7 8 -3 13 -12 11 -19 -1 -9 2 -8 11 3 10 13 16 15 25 6 7 -7
12 -9 12 -5 0 9 -158 134 -279 221 -109 79 -179 118 -195 109 -6 -3 -8 -2 -3
2 4 5 -41 34 -100 65 -220 115 -329 174 -354 191 -49 35 -61 30 -196 -86 -112
-96 -283 -248 -379 -337 l-31 -29 -164 109 c-90 60 -174 114 -186 121 -22 11
-23 16 -23 154 1 78 5 199 9 268 7 110 11 129 30 148 12 12 26 19 31 16 6 -4
10 -1 10 4 0 6 8 11 18 11 9 1 29 11 44 23 l27 22 -166 185 c-241 269 -248
277 -295 294 -24 8 -135 49 -248 90 -313 114 -632 232 -662 246 -30 14 -37 30
-14 30 8 0 90 -22 183 -49 175 -50 354 -94 657 -160 l178 -38 161 -159 c103
-102 139 -134 101 -89 -67 80 -104 130 -104 143 0 5 20 20 45 33 25 14 49 34
54 49 5 14 17 46 26 72 l17 47 111 -40 c121 -43 314 -125 335 -141 26 -22 11
24 -40 120 -126 237 -293 449 -592 747 -281 281 -475 448 -913 789 -112 86
-203 159 -203 161 0 11 22 0 228 -106z m5113 -151 c12 -23 67 -24 75 -3 5 11
10 12 18 6 7 -6 39 -9 72 -9 32 1 100 1 149 0 50 -2 108 0 130 4 22 4 55 6 73
6 17 0 32 4 32 9 0 6 6 7 13 2 19 -12 37 -14 120 -13 47 0 77 -3 77 -10 0 -5
7 -10 15 -10 8 0 15 6 15 14 0 17 59 31 116 27 23 -1 45 2 48 8 11 17 59 -13
94 -56 65 -84 108 -203 120 -333 5 -52 7 -100 5 -107 -5 -12 -49 -11 -61 2 -4
4 3 4 16 1 25 -8 32 11 7 20 -10 4 -13 13 -10 25 8 23 -34 36 -64 19 -12 -6
-25 -9 -29 -6 -4 2 -30 0 -57 -5 -28 -6 -62 -12 -77 -14 -14 -2 -35 -8 -46
-14 -12 -6 -30 -11 -41 -11 -12 0 -21 -7 -21 -15 0 -8 -7 -15 -15 -15 -8 0
-15 -4 -15 -9 0 -6 -12 -6 -32 0 -18 5 -50 9 -71 9 -30 0 -40 -4 -44 -20 -7
-26 -13 -25 -57 5 -20 14 -43 25 -51 25 -8 0 -15 4 -15 9 0 5 -24 12 -52 16
-29 5 -60 10 -68 12 -8 2 -39 6 -67 9 -29 3 -53 10 -53 14 0 13 -150 0 -198
-17 -24 -8 -51 -24 -62 -35 -11 -12 -20 -16 -25 -9 -3 6 -1 11 5 11 7 0 10 7
6 15 -7 18 24 75 42 75 7 0 15 6 18 14 3 8 13 12 26 8 18 -4 19 -2 9 15 -9 17
-17 20 -56 16 -28 -4 -45 -2 -45 5 0 6 6 13 13 15 9 4 9 7 -1 15 -9 6 -2 14
28 27 39 18 57 40 23 29 -40 -13 -83 -35 -82 -42 5 -32 -2 -40 -24 -29 -20 9
-22 14 -13 34 6 12 15 23 19 23 4 0 3 9 -3 20 -12 23 -35 27 -26 5 3 -8 1 -15
-5 -15 -6 0 -7 -4 -4 -10 3 -5 0 -10 -9 -10 -8 0 -21 -3 -30 -6 -9 -3 -16 -2
-16 4 0 5 11 13 25 16 24 6 36 26 15 26 -5 0 -10 -5 -10 -11 0 -8 -5 -8 -15 1
-11 9 -18 10 -29 1 -7 -6 -22 -8 -31 -4 -12 4 -16 3 -12 -4 4 -6 -3 -8 -18 -5
-14 2 -26 7 -26 11 -1 3 -3 16 -4 29 -1 13 -7 28 -13 34 -19 19 14 67 48 68 8
0 35 22 61 49 44 46 50 50 84 44 35 -6 35 -5 25 21 l-10 27 31 -18 c17 -10 35
-26 40 -35z m-5811 -136 c385 -161 563 -238 710 -305 129 -60 145 -70 146 -93
1 -17 -2 -24 -11 -20 -13 5 -30 -22 -20 -32 3 -3 5 0 5 6 0 7 8 12 18 12 14 0
14 -2 3 -9 -27 -17 -19 -37 28 -66 155 -95 431 -278 427 -283 -2 -2 -61 35
-132 81 -298 193 -762 461 -1149 662 -174 91 -259 136 -265 143 -7 8 3 3 240
-96z m5510 -62 c0 -5 -2 -10 -4 -10 -3 0 -8 5 -11 10 -3 6 -1 10 4 10 6 0 11
-4 11 -10z m1527 -557 c16 -55 21 -63 43 -64 14 -1 30 -2 35 -4 6 -1 93 -3
195 -5 102 -1 172 -5 155 -9 -44 -10 145 -19 435 -21 142 -1 246 -5 248 -11 5
-12 52 -12 52 1 0 6 9 6 26 0 14 -6 47 -10 73 -10 26 0 51 -4 57 -10 5 -5 30
-11 55 -12 l46 -3 37 -105 c42 -124 79 -266 103 -405 13 -77 17 -157 17 -350
0 -261 -8 -341 -55 -535 l-21 -85 -51 -1 c-98 -1 -162 -8 -169 -18 -6 -8 -11
-7 -17 3 -6 9 -10 10 -16 2 -4 -7 -16 -9 -28 -6 -14 4 -1 -14 39 -52 66 -64
115 -130 132 -181 10 -30 8 -41 -33 -125 -56 -117 -103 -197 -115 -197 -14 0
-23 39 -15 68 5 20 8 23 16 11 17 -26 10 24 -12 91 -31 95 -84 196 -146 278
-30 39 -58 72 -62 72 -3 0 -33 25 -66 56 -33 31 -90 78 -127 106 -38 27 -68
53 -68 56 0 10 -71 53 -185 112 -55 29 -123 72 -152 96 -33 28 -57 42 -67 38
-9 -3 -16 -10 -16 -14 0 -16 105 -100 126 -100 11 0 38 -15 60 -33 57 -49 108
-77 137 -77 40 0 55 -10 78 -49 15 -26 42 -48 98 -79 123 -68 204 -174 296
-390 19 -46 35 -90 35 -98 0 -21 51 -148 61 -152 9 -4 -3 -27 -43 -85 -18 -25
-29 -34 -32 -26 -2 8 -12 46 -20 84 -28 119 -106 347 -144 420 -45 87 -123
167 -194 198 -48 22 -148 107 -148 127 0 14 -31 20 -49 10 -13 -7 -31 -2 -67
17 -59 31 -165 105 -217 150 l-38 34 -29 -21 c-17 -12 -30 -24 -30 -28 0 -8
132 -113 205 -163 42 -29 58 -34 102 -33 49 1 54 -1 117 -56 36 -32 93 -73
127 -91 78 -42 143 -120 165 -199 8 -30 24 -74 34 -98 11 -23 20 -49 20 -57 0
-9 16 -64 35 -123 19 -60 42 -148 50 -196 l15 -87 -32 -40 c-37 -46 -42 -41
-52 44 -3 32 -15 83 -25 115 -11 31 -31 98 -46 147 -78 260 -113 349 -156 399
-23 25 -47 46 -54 46 -28 0 -121 63 -150 101 -32 43 -68 58 -96 40 -10 -6 -25
-11 -32 -11 -12 0 -133 78 -249 160 l-57 40 -33 -30 c-31 -29 -32 -31 -14 -43
11 -7 53 -37 95 -68 42 -31 102 -71 135 -89 57 -33 58 -33 88 -16 38 23 67 15
98 -28 31 -42 82 -76 125 -83 45 -7 102 -90 122 -175 8 -34 21 -75 30 -92 9
-17 24 -60 33 -96 40 -151 60 -218 80 -275 13 -35 24 -96 27 -146 l6 -85 -85
-77 c-140 -128 -294 -239 -441 -321 -54 -31 -66 -34 -61 -19 3 11 0 9 -9 -5
-15 -26 -153 -92 -295 -142 -411 -146 -886 -169 -1312 -64 -185 45 -289 83
-465 169 l-150 73 -39 133 c-21 74 -41 146 -43 162 -3 15 -10 27 -17 27 -14 0
-99 -98 -93 -108 3 -4 12 -31 21 -61 l16 -53 -38 28 c-189 142 -351 300 -479
470 l-54 72 26 68 c46 122 140 233 295 345 52 38 142 107 200 154 97 79 141
107 244 149 98 41 225 123 299 195 42 41 77 70 78 65 0 -5 2 -20 3 -33 2 -18
-16 -47 -65 -105 -69 -82 -82 -113 -54 -136 8 -7 15 -17 15 -23 0 -6 19 -35
43 -66 62 -82 93 -133 135 -221 37 -80 49 -95 52 -62 7 72 1 128 -20 175 -27
62 -37 87 -43 107 -4 15 -16 -5 -31 -52 -3 -10 -10 -18 -15 -18 -19 0 -22 41
-7 101 9 33 16 74 16 90 0 16 3 29 8 29 9 0 32 -72 32 -100 0 -12 8 -37 19
-58 56 -112 92 -233 88 -295 -3 -26 1 -37 10 -37 8 0 12 -4 9 -9 -9 -13 32
-44 49 -37 9 3 14 2 11 -3 -3 -5 0 -14 7 -20 10 -8 21 0 45 34 39 55 76 64 62
14 -7 -23 -6 -29 3 -22 7 5 30 20 52 34 22 14 72 47 111 72 39 26 75 47 81 47
5 0 18 9 29 21 25 28 60 45 107 52 31 5 38 3 33 -8 -12 -33 37 -12 146 62 62
42 140 97 173 121 90 68 322 277 482 435 124 123 140 142 130 159 -7 10 -15
18 -19 18 -5 0 -41 -35 -80 -77 -85 -91 -144 -150 -253 -253 -139 -131 -362
-316 -371 -308 -5 6 60 123 98 179 13 19 111 121 218 227 193 192 194 194 170
207 -14 7 -38 12 -54 10 -22 -3 -36 3 -58 27 -35 38 -45 30 -51 -40 -6 -61 -4
-58 -39 -67 -26 -7 -26 -6 -21 37 3 23 10 51 15 61 5 10 6 26 3 37 -4 12 0 22
11 28 11 6 13 12 6 16 -13 8 -5 57 15 96 20 38 17 63 -7 57 -20 -5 -28 7 -12
17 17 10 11 71 -10 114 -20 40 -38 55 -38 31 0 -5 -4 -8 -9 -5 -5 4 -11 1 -13
-5 -2 -6 -16 4 -31 24 -14 19 -43 45 -62 57 -31 19 -39 21 -66 10 -20 -9 -51
-10 -94 -6 -59 6 -72 4 -134 -24 -71 -31 -106 -31 -96 -1 7 23 -60 44 -87 28
-16 -10 -22 -9 -32 6 -16 21 -27 22 -20 2 4 -9 0 -15 -9 -15 -22 0 -31 18 -17
34 8 10 8 15 0 18 -7 2 -6 15 5 40 14 35 14 38 -3 47 -10 5 -24 9 -32 9 -38
-2 -49 2 -43 18 5 14 2 16 -20 10 -20 -5 -27 -2 -32 13 -7 24 -35 36 -35 16 0
-8 -8 -15 -17 -15 -14 0 -15 2 -4 9 10 7 11 13 2 29 -6 12 -11 25 -10 29 3 21
-2 24 -18 12 -11 -9 -14 -10 -10 -2 5 7 1 23 -8 36 -8 13 -12 27 -8 30 3 4 1
7 -5 7 -7 0 -12 -5 -12 -10 0 -6 -7 -7 -17 -1 -47 23 -117 41 -126 32 -12 -12
-61 35 -52 50 4 5 -4 9 -17 10 -13 0 -17 3 -10 6 20 8 13 25 -8 18 -11 -4 -20
-2 -20 4 0 6 11 11 25 11 18 0 25 5 25 20 0 17 -7 20 -42 21 -30 2 -35 3 -16
6 16 2 36 17 48 33 13 18 26 27 35 23 8 -3 15 0 15 6 0 20 48 11 104 -20 31
-16 56 -26 56 -22 0 4 4 3 8 -4 9 -15 71 -18 151 -8 43 5 59 10 50 16 -9 6 -3
7 16 3 24 -4 36 0 58 20 15 14 27 34 27 46 0 17 6 20 38 19 20 0 31 -3 25 -6
-16 -6 -17 -43 -2 -43 6 0 18 4 27 9 9 4 29 11 44 15 25 6 26 4 23 -30 -2 -19
-10 -43 -19 -53 -9 -10 -16 -22 -16 -27 0 -5 6 -2 13 7 7 8 20 18 30 22 13 5
16 13 12 26 -3 11 -1 28 4 38 6 10 17 47 26 83 18 74 34 92 79 83 41 -8 52
-18 59 -52 9 -42 65 -118 107 -143 106 -63 137 -78 126 -59 -12 19 7 41 35 41
16 0 29 3 29 8 0 4 10 12 22 17 12 6 29 24 38 40 10 18 26 31 41 34 13 1 27 8
31 15 11 16 10 78 -1 71 -5 -3 -17 5 -26 17 -9 14 -26 23 -43 23 -21 0 -26 4
-24 19 3 18 -1 19 -62 13 -36 -3 -75 -11 -86 -17 -31 -16 -24 -3 8 15 22 13
23 15 5 10 -35 -10 -27 4 12 21 19 7 55 14 79 14 36 0 52 -6 80 -31 19 -16 38
-39 41 -50 7 -21 25 -26 25 -6 0 7 -9 30 -20 51 -10 22 -17 43 -14 47 3 5 0 9
-5 9 -6 0 -11 7 -11 15 0 18 12 19 28 3 9 -9 13 -7 18 7 5 12 14 -18 25 -86
10 -57 26 -132 36 -166z m-1267 249 c0 -4 -5 -13 -12 -20 -9 -9 -9 -12 0 -12
7 0 12 5 12 10 0 6 7 10 16 10 27 0 -3 -28 -34 -32 -16 -2 -27 -9 -27 -18 0
-8 -3 -19 -7 -25 -31 -51 -54 -102 -51 -112 3 -7 -1 -13 -7 -13 -7 0 -9 -8 -5
-20 5 -15 2 -20 -11 -20 -14 0 -14 -3 -4 -15 11 -13 10 -14 -4 -9 -17 7 -23
-11 -6 -21 19 -11 10 -25 -15 -25 -31 0 -43 24 -24 47 12 14 12 16 0 12 -23
-8 -39 -41 -23 -46 10 -4 10 -8 1 -19 -9 -11 -8 -14 5 -14 9 0 16 -8 16 -20 0
-23 -15 -27 -24 -5 -3 8 -11 15 -18 15 -9 0 -9 -3 2 -10 11 -8 1 -10 -35 -8
-40 2 -51 7 -54 23 -3 17 -1 18 13 6 9 -7 16 -12 17 -10 7 38 6 59 -4 59 -6 0
-2 6 8 14 19 14 19 15 2 34 -12 13 -15 22 -8 27 6 3 11 -1 11 -9 0 -9 6 -16
13 -16 21 0 28 12 16 27 -9 10 -8 13 4 13 8 0 17 9 20 19 2 11 15 21 28 23 16
2 25 11 27 26 3 19 5 20 18 8 8 -8 11 -22 8 -30 -7 -18 4 -20 25 -7 7 5 10 14
7 20 -4 6 -3 11 2 11 5 0 12 13 15 30 9 40 54 110 72 110 8 0 15 -4 15 -8z
m-4810 -59 c3 -3 -4 -3 -15 -1 -13 2 -19 -2 -17 -11 2 -8 -12 -1 -31 15 -19
16 -32 32 -30 36 3 7 78 -25 93 -39z m-70 -18 c0 -5 -5 -3 -10 5 -5 8 -10 20
-10 25 0 6 5 3 10 -5 5 -8 10 -19 10 -25z m5190 5 c8 -5 12 -11 10 -13 -5 -4
-134 -37 -145 -37 -5 0 -8 30 -2 30 1 0 20 7 42 15 47 17 74 18 95 5z m10 -50
c-8 -5 -31 -9 -50 -9 -29 0 -31 2 -15 9 11 5 34 9 50 9 23 1 26 -2 15 -9z
m703 -62 c2 -13 8 -31 12 -40 5 -13 3 -18 -8 -18 -11 0 -14 7 -10 23 5 21 5
22 -10 2 -13 -17 -17 -18 -33 -5 -11 8 -16 11 -12 6 11 -13 -16 -34 -48 -36
-48 -3 -65 -1 -59 10 4 6 23 7 46 4 37 -6 39 -5 39 19 0 17 7 28 20 32 11 3
20 11 20 16 0 20 38 8 43 -13z m-190 -49 c-5 -19 -7 -19 -15 -5 -10 18 -2 39
12 31 4 -3 6 -15 3 -26z m-310 6 c4 -8 2 -17 -3 -20 -6 -4 -10 -4 -10 -1 0 2
-3 11 -6 20 -3 9 -2 16 4 16 5 0 12 -7 15 -15z m589 -7 c-7 -7 -12 -8 -12 -2
0 14 12 26 19 19 2 -3 -1 -11 -7 -17z m36 5 c-2 -9 -8 -18 -15 -20 -7 -3 -9 3
-6 16 6 25 26 28 21 4z m-863 -33 c3 -5 -1 -10 -10 -10 -9 0 -13 5 -10 10 3 6
8 10 10 10 2 0 7 -4 10 -10z m832 -5 c7 -21 -2 -29 -24 -20 -14 5 -15 9 -4 12
11 5 11 7 0 14 -11 7 -10 9 4 9 10 0 20 -7 24 -15z m-1527 -20 c0 -8 -7 -15
-15 -15 -9 0 -18 -7 -21 -15 -4 -9 -19 -15 -38 -15 -17 0 -47 -4 -67 -9 -34
-8 -35 -7 -31 16 6 29 12 33 64 39 24 3 45 7 47 10 2 2 17 4 33 4 18 0 28 -5
28 -15z m-174 -123 c-11 -10 -15 4 -8 28 l7 25 3 -23 c2 -13 1 -26 -2 -30z
m464 18 c0 -5 -4 -10 -10 -10 -5 0 -10 5 -10 10 0 6 5 10 10 10 6 0 10 -4 10
-10z m-464 -138 c-13 -12 -18 9 -10 45 l8 38 4 -39 c2 -21 1 -41 -2 -44z m220
1 c-2 -3 -9 -2 -15 2 -8 4 -7 13 1 28 l13 22 3 -23 c2 -13 1 -26 -2 -29z
m-119 -79 c33 -47 53 -64 77 -64 13 0 42 -8 64 -18 33 -15 38 -21 31 -35 -7
-11 -22 -17 -44 -17 -37 0 -56 -17 -34 -31 10 -6 5 -9 -17 -9 -24 0 -38 9 -63
40 -35 43 -34 49 4 24 25 -16 55 -13 55 6 0 5 -20 20 -45 31 -42 20 -75 59
-75 89 0 19 29 10 47 -16z m-174 -24 c15 -13 -184 -24 -205 -11 -10 6 -32 12
-50 13 -26 1 -22 3 17 8 58 9 226 1 238 -10z m-7928 -17 c9 -25 0 -25 -24 1
-22 24 -22 24 -3 19 11 -3 23 -12 27 -20z m-160 -13 c3 -5 -1 -10 -10 -10 -9
0 -13 5 -10 10 3 6 8 10 10 10 2 0 7 -4 10 -10z m105 -5 c0 -8 -4 -15 -9 -15
-13 0 -22 16 -14 24 11 11 23 6 23 -9z m-1406 -49 c18 -39 19 -46 7 -46 -8 0
-41 60 -41 74 0 18 20 1 34 -28z m9338 -9 c20 -1 34 -5 32 -8 -2 -4 4 -10 14
-14 16 -6 16 -7 -1 -20 -22 -16 -15 -21 43 -30 25 -4 62 -12 84 -18 34 -10 36
-12 16 -19 -12 -4 -19 -12 -15 -17 7 -13 -16 -19 -105 -27 l-74 -7 49 -13 c28
-7 60 -13 73 -14 19 0 22 -5 22 -40 0 -37 3 -41 30 -47 30 -6 58 -37 42 -47
-7 -4 -195 -26 -225 -26 -6 0 -7 -3 -4 -7 4 -3 2 -12 -4 -19 -8 -10 -2 -17 28
-30 l38 -17 -55 -11 -55 -12 40 -7 c22 -4 64 -7 94 -7 42 0 52 -3 48 -14 -4
-11 5 -16 35 -21 44 -8 35 -25 -14 -25 -14 0 -28 -5 -30 -10 -2 -6 -20 -13
-41 -17 -30 -4 -37 -3 -37 11 0 18 -26 22 -32 4 -3 -8 -44 -13 -131 -15 -107
-3 -128 -1 -133 12 -4 8 -17 15 -29 15 -43 0 -36 19 10 25 27 5 45 12 45 21 0
8 18 16 48 20 53 8 50 10 -30 19 -32 4 -58 10 -58 14 0 4 25 13 55 20 49 11
53 14 43 31 -12 19 -20 20 -180 42 -54 7 -98 15 -98 19 0 4 19 10 43 14 89 13
97 16 97 35 0 10 5 22 10 25 6 3 10 15 10 26 0 13 7 19 23 19 13 0 31 6 41 13
18 13 18 14 0 21 -10 5 -56 10 -101 13 -45 3 -80 10 -77 14 3 5 -7 12 -23 15
-25 7 -25 8 -6 15 11 4 58 10 104 14 46 4 102 11 124 17 38 10 39 11 17 21
-23 10 -22 11 20 33 33 17 55 21 93 18 28 -3 66 -6 87 -7z m-4372 -200 c69
-43 177 -112 240 -152 63 -40 147 -92 185 -116 39 -23 72 -45 75 -48 3 -3 14
-11 25 -18 11 -6 72 -44 135 -83 63 -39 124 -77 135 -83 11 -7 31 -19 45 -28
14 -9 57 -33 95 -54 39 -21 72 -41 75 -45 3 -4 14 -12 25 -18 18 -11 16 -12
-10 -6 -16 3 -71 19 -121 34 -117 37 -583 160 -605 160 -9 0 -45 37 -80 83
-35 45 -138 172 -230 282 -182 221 -199 244 -148 200 19 -16 91 -65 159 -108z
m-4920 98 c0 -8 -2 -15 -4 -15 -2 0 -6 7 -10 15 -3 8 -1 15 4 15 6 0 10 -7 10
-15z m1735 -15 c3 -5 1 -10 -4 -10 -6 0 -11 5 -11 10 0 6 2 10 4 10 3 0 8 -4
11 -10z m7955 -77 c-1 -38 1 -90 5 -118 6 -37 5 -47 -4 -39 -6 5 -13 37 -16
70 -3 32 -8 80 -10 107 -5 39 -3 47 10 47 14 0 16 -12 15 -67z m-7982 32 c-3
-3 -9 2 -12 12 -6 14 -5 15 5 6 7 -7 10 -15 7 -18z m101 -31 c12 8 15 -6 4
-17 -8 -9 -33 12 -33 27 0 6 4 5 9 -3 5 -7 14 -10 20 -7z m291 -150 c0 -3 -7
-1 -15 6 -8 7 -15 17 -15 22 0 5 7 3 15 -6 8 -8 15 -18 15 -22z m8600 5 c71
-9 95 -8 146 5 87 22 175 21 195 -3 20 -23 22 -98 2 -105 -21 -8 -51 23 -45
47 5 19 4 19 -25 -3 -25 -18 -37 -21 -64 -15 -19 5 -29 10 -22 12 8 3 7 10 -5
24 -21 24 -32 24 -32 0 0 -20 -32 -39 -38 -23 -2 7 -16 6 -40 0 -20 -6 -58 -7
-87 -3 -27 4 -65 9 -84 11 -18 2 -38 8 -45 13 -6 5 -33 21 -61 36 l-50 26 85
-6 c47 -3 123 -11 170 -16z m-8465 -41 c10 -15 11 -24 5 -26 -11 -4 -39 25
-40 41 0 15 19 6 35 -15z m7484 -45 c14 -58 20 -133 10 -133 -7 0 -27 81 -27
110 0 8 -3 27 -7 43 -4 15 -3 27 2 27 5 0 15 -21 22 -47z m1381 1 c0 -8 -5
-12 -10 -9 -6 4 -8 11 -5 16 9 14 15 11 15 -7z m-107 -184 c4 -4 5 -19 1 -34
-6 -25 -11 -27 -40 -24 -19 2 -35 -1 -37 -6 -2 -6 -19 4 -37 22 l-33 33 -96
-5 c-53 -2 -117 -8 -143 -11 -52 -8 -67 8 -20 20 74 20 384 24 405 5z m-10796
-62 c-3 -8 -6 -5 -6 6 -1 11 2 17 5 13 3 -3 4 -12 1 -19z m2273 -14 c0 -8 -6
-11 -15 -8 -8 4 -15 12 -15 20 0 8 6 11 15 8 8 -4 15 -12 15 -20z m75 6 c3 -5
1 -10 -4 -10 -6 0 -11 5 -11 10 0 6 2 10 4 10 3 0 8 -4 11 -10z m-124 -132
c26 -9 39 -30 44 -72 1 -11 10 -25 19 -31 9 -7 16 -19 16 -26 0 -8 9 -22 20
-32 24 -20 26 -37 4 -37 -11 0 -14 -6 -9 -22 4 -13 11 -27 16 -32 5 -6 9 -18
9 -28 0 -14 -6 -16 -32 -11 -43 7 -66 29 -51 44 9 9 7 18 -7 37 -26 32 -25 52
0 52 11 0 20 7 20 16 0 8 -5 12 -10 9 -12 -7 -40 12 -40 27 0 6 7 8 15 4 8 -3
15 -2 15 2 -1 12 -38 52 -49 52 -13 0 -32 35 -23 44 3 4 0 12 -8 17 -16 11
-13 11 51 -13z m-1031 -82 c0 -8 -4 -18 -10 -21 -5 -3 -10 3 -10 14 0 12 5 21
10 21 6 0 10 -6 10 -14z m50 -98 c9 -3 16 -17 18 -32 2 -23 -2 -26 -28 -26
-19 0 -34 7 -42 20 -7 11 -18 20 -24 20 -26 0 -23 30 4 44 24 14 28 13 42 -2
8 -10 22 -21 30 -24z m195 -4 c11 -8 32 -14 47 -14 15 0 29 -4 33 -9 3 -5 31
-13 63 -17 31 -3 64 -14 73 -23 10 -9 31 -29 48 -44 33 -31 38 -46 19 -65 -14
-14 12 -48 45 -58 11 -4 25 -11 31 -16 6 -5 35 -23 64 -39 35 -20 52 -36 52
-49 0 -14 -7 -20 -21 -20 -12 0 -23 -8 -26 -20 -4 -14 -14 -20 -34 -20 -15 0
-31 -4 -34 -10 -3 -5 -21 -10 -40 -10 -41 0 -61 -18 -69 -65 -4 -19 -10 -35
-14 -35 -29 0 -48 -188 -23 -213 15 -15 14 -44 -1 -49 -18 -6 -78 69 -78 97 0
13 -7 28 -16 33 -16 9 -16 43 -1 177 6 56 -19 105 -54 105 -15 0 -46 11 -70
24 -24 14 -69 31 -99 40 -30 8 -72 21 -94 29 l-39 14 59 27 c33 15 74 30 92
33 34 6 44 22 15 24 -10 0 5 7 32 14 28 7 41 13 29 14 -12 1 -26 12 -33 29 -7
15 -20 43 -30 63 -15 31 -16 38 -3 57 16 24 38 22 77 -4z m4202 -13 c-1 -21
-5 -37 -8 -35 -8 5 -46 -86 -117 -286 -72 -200 -93 -270 -81 -270 5 0 9 5 9
10 0 6 5 10 11 10 6 0 19 10 29 23 10 12 22 18 27 14 11 -11 11 -97 0 -97 -4
0 -6 -4 -2 -9 3 -5 1 -12 -5 -16 -6 -4 -8 -10 -5 -15 3 -5 1 -11 -5 -15 -5 -3
-10 -11 -10 -16 0 -6 4 -8 9 -5 4 3 6 -6 3 -19 -2 -14 -9 -25 -16 -25 -6 0 -3
-5 7 -11 14 -8 16 -14 6 -25 -6 -7 -14 -12 -18 -10 -3 2 -7 -10 -8 -27 -2 -24
0 -28 7 -17 6 9 10 10 10 3 0 -14 -19 -28 -27 -20 -14 14 -30 82 -21 88 13 8
12 20 -3 30 -10 6 -10 11 2 25 13 15 12 16 -11 10 l-25 -7 25 15 c23 14 23 15
5 17 -17 1 -17 2 -2 6 27 7 20 21 -9 15 -17 -3 -23 -9 -19 -20 3 -8 -1 -24 -8
-36 -8 -12 -12 -31 -11 -44 3 -14 0 -21 -6 -17 -5 3 -11 0 -11 -7 -5 -45 -7
-56 -17 -74 -6 -12 -13 -32 -16 -45 -3 -13 -14 -49 -25 -81 -11 -31 -22 -70
-23 -87 -1 -17 -6 -31 -11 -31 -4 0 -7 -8 -6 -17 1 -10 -2 -29 -8 -43 -6 -14
-18 -51 -28 -83 -14 -49 -14 -61 -3 -75 11 -15 11 -15 -3 -4 -14 10 -17 9 -22
-8 -3 -11 -1 -20 5 -20 5 0 2 -7 -6 -16 -9 -8 -17 -21 -17 -27 -1 -7 -3 -22
-4 -35 -1 -12 -9 -39 -18 -60 -9 -20 -28 -77 -42 -127 -44 -148 -68 -219 -77
-229 -14 -17 -9 5 36 154 24 80 69 237 101 350 175 628 302 1030 403 1270 32
77 49 110 57 110 2 0 2 -18 2 -39z m-3342 -111 c3 -5 1 -10 -4 -10 -6 0 -11 5
-11 10 0 6 2 10 4 10 3 0 8 -4 11 -10z m-1495 -95 c0 -8 -4 -15 -9 -15 -13 0
-22 16 -14 24 11 11 23 6 23 -9z m4430 -14 c-5 -11 -15 -23 -21 -27 -6 -3 -3
5 6 20 20 30 30 35 15 7z m-3105 0 c3 -5 1 -12 -5 -16 -5 -3 -10 1 -10 9 0 18
6 21 15 7z m-1901 -17 c8 -21 -1 -34 -23 -34 -9 0 -22 -5 -29 -12 -9 -9 -12
-9 -12 0 0 6 9 16 20 22 11 6 19 14 19 18 -4 26 16 31 25 6z m546 -34 c12 -7
10 -13 -10 -33 -14 -13 -30 -32 -36 -42 -6 -10 -19 -23 -30 -29 -10 -6 -43
-30 -71 -54 -45 -37 -53 -49 -53 -77 0 -20 -6 -35 -15 -38 -14 -6 -45 -68 -45
-92 0 -8 15 -17 33 -20 36 -8 67 -31 67 -51 0 -15 17 -21 95 -30 41 -5 54 -9
40 -14 -17 -6 -16 -7 8 -14 15 -3 39 -4 55 0 20 4 23 3 12 -5 -13 -9 -13 -11
0 -15 25 -8 101 -16 211 -22 l107 -6 40 36 c37 33 41 35 56 21 14 -14 14 -20
2 -43 -15 -28 -101 -132 -118 -143 -7 -4 -6 -9 1 -13 6 -4 31 2 56 13 60 26
78 19 72 -28 -4 -39 9 -91 24 -91 20 0 7 -28 -27 -61 -20 -18 -42 -46 -50 -61
-16 -31 -19 -84 -4 -93 17 -10 11 -33 -10 -40 -11 -3 -20 -14 -20 -24 0 -19
-69 -55 -98 -49 -12 2 -16 11 -14 31 3 23 0 27 -21 27 -14 0 -30 -7 -37 -15
-7 -9 -23 -15 -34 -13 -17 2 -20 9 -18 33 2 16 8 32 12 35 5 3 11 21 12 40 3
29 -1 35 -24 44 -15 5 -31 6 -35 1 -5 -4 -2 -10 5 -12 14 -6 16 -79 2 -88 -5
-3 -10 -17 -10 -31 0 -19 -5 -24 -23 -24 -16 0 -28 -9 -37 -27 l-13 -28 -6 25
c-6 22 -13 26 -61 30 -30 3 -66 13 -80 23 -16 11 -43 17 -77 17 -82 0 -103 12
-103 59 0 44 -28 67 -37 31 -3 -11 -10 -20 -16 -20 -5 0 -3 -8 6 -18 10 -11
13 -22 7 -31 -12 -20 -1 -41 20 -41 11 0 22 -4 25 -10 3 -5 1 -10 -4 -10 -6 0
-11 -4 -11 -10 0 -16 31 -12 51 6 24 21 72 11 67 -14 -3 -14 -18 -17 -96 -20
-68 -2 -92 -6 -89 -15 2 -8 20 -11 48 -9 58 4 106 -13 90 -32 -7 -8 -29 -17
-51 -21 -32 -5 -43 -14 -67 -54 l-30 -48 24 -47 c13 -26 22 -53 19 -59 -2 -7
-5 -4 -5 5 -1 9 -10 19 -20 23 -10 3 -24 19 -31 34 l-12 29 -34 -20 c-19 -11
-34 -24 -34 -28 0 -5 -3 -15 -6 -24 -5 -13 2 -16 36 -16 29 0 40 -4 38 -12 -8
-24 -47 -20 -73 6 -29 29 -45 32 -63 14 -20 -20 -40 7 -25 32 11 17 9 19 -15
22 -22 2 -26 7 -24 26 2 12 -2 22 -7 22 -6 0 -11 -4 -11 -10 0 -5 -16 -10 -35
-10 -31 0 -35 3 -35 25 0 20 5 25 26 25 25 0 54 20 54 37 0 4 -9 14 -19 20
-16 10 -20 9 -24 -8 -3 -10 -13 -19 -22 -19 -14 0 -16 6 -10 38 8 44 8 39 6
80 -1 25 -5 32 -21 32 -17 0 -20 7 -20 38 0 29 7 46 31 70 18 18 30 34 28 36
-2 2 -28 6 -58 10 -53 7 -54 7 -49 -18 3 -15 4 -26 3 -26 -8 0 -75 71 -75 79
0 6 -21 34 -48 63 -34 38 -53 70 -66 116 -11 34 -23 62 -27 62 -9 0 -28 -87
-26 -115 2 -15 -5 -21 -24 -23 -25 -3 -26 0 -32 55 -8 74 -2 97 40 152 28 36
33 49 27 75 -3 17 -10 35 -15 40 -5 6 -9 21 -9 35 0 28 -55 91 -80 91 -25 0
-70 24 -70 37 0 10 67 11 140 2 33 -4 49 2 55 22 5 15 13 19 28 15 12 -3 27 0
35 7 13 10 14 8 8 -11 -7 -19 -4 -22 23 -22 17 0 40 -6 51 -12 17 -11 23 -9
42 10 12 12 18 22 13 22 -6 0 -16 4 -24 9 -19 12 3 51 29 51 23 0 111 54 123
75 4 8 15 15 22 15 8 0 15 8 15 18 0 11 13 23 35 31 19 7 35 19 35 26 0 11 8
13 33 8 42 -7 39 -7 60 2 23 10 36 -3 17 -16 -13 -8 -12 -12 4 -24 24 -18 48
-19 64 -3 9 9 17 9 35 -1 20 -11 29 -10 53 2 16 8 35 12 42 10 27 -10 60 7 70
37 12 34 31 39 39 10 4 -17 8 -18 27 -8 11 6 27 19 34 30 15 20 21 22 42 8z
m4424 -2 c-14 -23 -197 -291 -239 -350 -22 -31 -60 -87 -85 -123 -58 -84 -237
-337 -247 -350 -22 -26 -52 -83 -48 -88 3 -4 2 -5 -1 -2 -10 7 -46 -43 -40
-54 4 -5 -5 -18 -18 -29 -20 -15 -22 -22 -13 -32 9 -10 9 -11 0 -6 -9 5 -12
-1 -11 -18 1 -15 6 -26 11 -26 4 0 26 -18 47 -40 22 -23 40 -38 40 -35 0 5 25
-21 58 -60 5 -5 26 -25 47 -43 21 -17 84 -74 139 -126 56 -51 121 -112 146
-134 25 -23 42 -42 38 -42 -4 0 -13 6 -20 13 -7 7 -132 120 -278 251 -146 131
-266 242 -268 245 -1 4 57 90 128 191 72 102 239 339 371 528 132 188 243 342
245 342 3 0 2 -6 -2 -12z m-4774 -68 c0 -5 -4 -10 -10 -10 -5 0 -10 5 -10 10
0 6 5 10 10 10 6 0 10 -4 10 -10z m1827 -26 c-9 -9 -27 6 -27 22 0 13 2 13 16
-1 9 -9 14 -18 11 -21z m-1114 -89 c27 -19 8 -25 -56 -18 -61 6 -70 14 -35 30
25 11 65 6 91 -12z m-18 -65 c4 -6 -5 -10 -19 -10 -14 0 -26 5 -26 10 0 6 9
10 19 10 11 0 23 -4 26 -10z m-1775 -47 c0 -5 -16 -18 -35 -31 -19 -12 -35
-18 -35 -13 0 5 15 18 33 30 36 23 37 24 37 14z m1767 -29 c-3 -3 -12 -4 -19
-1 -8 3 -5 6 6 6 11 1 17 -2 13 -5z m741 -12 c2 -8 -8 -12 -30 -12 -31 1 -32
1 -13 15 21 17 37 15 43 -3z m-838 -18 c0 -9 10 -34 22 -55 12 -21 19 -41 16
-44 -3 -4 -26 4 -52 15 -25 12 -65 28 -88 36 -25 8 -32 13 -15 11 18 -3 39 5
65 24 43 33 52 35 52 13z m4622 -39 c31 -31 68 -71 82 -90 14 -18 32 -39 39
-47 7 -7 26 -31 42 -53 16 -22 46 -63 67 -91 21 -28 38 -54 38 -57 0 -4 29
-66 64 -139 35 -73 74 -155 86 -183 13 -27 50 -106 82 -175 33 -69 73 -152 88
-185 58 -126 250 -515 255 -515 2 0 -16 44 -41 98 -25 53 -49 106 -54 117 -4
11 -34 74 -65 140 -31 66 -68 145 -82 175 -91 199 -178 376 -187 382 -6 4 -7
8 -3 8 5 0 -5 24 -21 53 -33 58 -78 184 -88 248 -6 35 -5 40 7 33 8 -5 16 -9
19 -10 12 -2 46 -16 64 -26 10 -5 28 -11 39 -14 11 -2 23 -7 26 -11 3 -5 20
-14 36 -22 17 -7 59 -32 95 -55 91 -60 91 -60 100 -46 4 7 12 -14 19 -52 6
-35 22 -102 36 -149 72 -238 216 -966 214 -1080 0 -24 -9 -69 -19 -99 -18 -50
-19 -41 -4 18 5 18 3 21 -10 16 -9 -3 -16 -10 -16 -15 0 -5 -6 -9 -13 -9 -7 0
-46 -18 -87 -40 -41 -22 -88 -47 -105 -55 -16 -9 -39 -22 -50 -28 -11 -7 -56
-32 -100 -56 -44 -24 -83 -49 -88 -55 -4 -6 -6 -152 -5 -324 2 -171 0 -312 -4
-312 -5 0 -8 39 -8 88 0 206 -12 530 -21 567 -5 22 -34 150 -64 285 -31 135
-62 272 -70 305 -8 33 -57 247 -110 475 -53 228 -102 443 -110 478 -8 34 -22
90 -30 125 -24 105 -96 401 -101 420 -3 9 -4 17 -1 17 2 0 29 -25 59 -55z
m-3732 23 c0 -6 -6 -5 -15 2 -8 7 -15 14 -15 16 0 2 7 1 15 -2 8 -4 15 -11 15
-16z m-2662 -35 c-14 -34 -35 -58 -23 -28 4 11 10 28 12 38 3 9 9 17 14 17 5
0 3 -12 -3 -27z m1945 -6 c28 -10 10 -27 -29 -27 l-35 0 18 24 c10 13 20 21
23 17 3 -4 13 -10 23 -14z m676 9 c15 -18 0 -29 -32 -25 -12 2 -27 0 -34 -4
-6 -4 -14 -3 -17 2 -3 5 -15 7 -25 4 -10 -3 -22 0 -25 6 -7 10 14 15 67 14 9
0 17 4 17 9 0 13 37 9 49 -6z m-2660 -103 c-7 -21 -14 -32 -16 -25 -5 12 18
74 25 67 2 -2 -2 -21 -9 -42z m263 37 c33 -10 56 -34 40 -43 -23 -13 -66 -16
-78 -6 -8 7 -18 9 -22 5 -11 -12 -11 -58 0 -88 8 -21 5 -39 -11 -83 -12 -31
-21 -77 -22 -103 l-1 -47 -11 45 c-15 62 -14 199 2 235 8 17 14 40 15 53 2 22
20 42 41 42 6 0 26 -5 47 -10z m2343 -10 c3 -5 1 -10 -4 -10 -6 0 -11 5 -11
10 0 6 2 10 4 10 3 0 8 -4 11 -10z m-2172 -17 c9 -3 17 -15 17 -28 0 -16 -11
-27 -39 -40 -50 -22 -71 -15 -71 24 0 33 35 65 60 55 8 -3 23 -9 33 -11z
m2122 -39 c3 -20 17 -47 30 -60 16 -16 19 -24 10 -24 -26 0 -24 -16 6 -51 29
-33 30 -33 44 -15 14 18 15 18 25 -8 5 -15 10 -33 10 -41 0 -7 8 -33 19 -57
37 -86 43 -170 31 -399 -6 -117 -15 -220 -21 -230 -5 -10 -9 -40 -9 -68 0 -28
-4 -51 -9 -51 -5 0 -12 -12 -14 -27 -2 -16 -2 7 1 50 5 76 -1 90 -26 65 -10
-10 -14 -8 -18 8 -3 12 -15 41 -27 65 l-22 44 -65 5 c-72 6 -150 36 -150 57 0
19 20 16 65 -12 58 -36 125 -30 125 10 0 14 -76 39 -90 30 -14 -9 -90 6 -90
18 0 6 -7 18 -16 28 -9 10 -19 45 -23 79 l-7 61 73 -2 c45 -1 78 3 88 11 12
10 17 9 30 -3 8 -9 15 -22 15 -31 0 -29 20 -26 67 10 56 42 60 49 63 89 6 75
-26 124 -72 112 -27 -7 -48 2 -48 20 0 12 -11 14 -57 10 -244 -22 -273 -26
-313 -46 -54 -26 -60 -26 -60 -2 0 41 36 52 145 45 l100 -6 23 31 c15 21 21
39 17 52 -6 19 -13 21 -77 17 -57 -2 -73 0 -81 13 -14 22 15 69 42 69 11 0 22
6 25 13 3 9 9 7 19 -6 14 -17 16 -17 25 -1 8 15 13 13 45 -19 19 -20 34 -44
33 -54 -1 -16 10 -18 87 -21 91 -3 105 4 69 37 -23 21 -51 81 -46 96 3 6 -2
18 -11 25 -8 7 -15 18 -15 25 0 7 -16 16 -36 19 -36 7 -44 33 -8 29 10 -1 23
5 27 13 16 28 44 16 52 -22z m-2568 -51 c-3 -10 -5 -4 -5 12 0 17 2 24 5 18 2
-7 2 -21 0 -30z m8337 -6 c-9 -5 -18 -6 -21 -3 -4 3 -1 6 5 6 7 0 12 8 12 18
0 14 2 15 10 2 6 -10 4 -17 -6 -23z m-2088 -6 c-3 -5 6 -12 22 -16 15 -4 22
-9 15 -12 -17 -6 -55 16 -48 28 4 5 8 9 11 9 3 0 3 -4 0 -9z m1594 -51 c8 -5
11 -10 5 -10 -5 0 -17 5 -25 10 -8 5 -10 10 -5 10 6 0 17 -5 25 -10z m-1655
-10 c3 -6 -1 -7 -9 -4 -18 7 -21 14 -7 14 6 0 13 -4 16 -10z m-5715 -12 c0 -7
-5 -20 -10 -28 -8 -12 -10 -9 -10 13 0 15 5 27 10 27 6 0 10 -6 10 -12z m-60
-1 c0 -2 -16 -18 -35 -37 -40 -38 -48 -27 -10 14 20 22 45 35 45 23z m7525
-17 c3 -6 -1 -7 -9 -4 -18 7 -21 14 -7 14 6 0 13 -4 16 -10z m205 -80 c8 -5
11 -10 5 -10 -5 0 -17 5 -25 10 -8 5 -10 10 -5 10 6 0 17 -5 25 -10z m-7532
-126 c2 -16 8 -35 14 -41 7 -9 7 -18 -2 -28 -17 -20 -30 -19 -30 3 0 11 -9 27
-20 37 -14 12 -19 27 -16 44 2 14 5 30 5 35 2 21 46 -24 49 -50z m-170 -30
c33 -23 28 -52 -12 -71 -48 -22 -66 -12 -66 36 0 51 33 67 78 35z m-103 -118
c19 -8 35 -20 35 -26 0 -7 9 -24 20 -40 41 -58 5 -40 -104 51 -8 7 0 29 10 29
3 0 20 -7 39 -14z m1135 -86 c0 -16 -4 -30 -10 -30 -5 0 -10 14 -10 30 0 17 5
30 10 30 6 0 10 -13 10 -30z m468 -112 c-5 -10 -13 -18 -18 -18 -14 0 -21 18
-10 25 5 3 10 19 10 35 0 15 3 37 7 47 6 13 9 6 14 -27 4 -25 2 -53 -3 -62z
m-511 66 c-3 -3 -12 -4 -19 -1 -8 3 -5 6 6 6 11 1 17 -2 13 -5z m-964 -43 c25
-11 48 -24 52 -30 3 -6 17 -8 30 -5 12 3 26 1 30 -6 4 -7 -1 -13 -13 -17 -27
-7 -36 -32 -15 -40 9 -4 18 -2 20 3 10 28 21 34 52 28 40 -8 55 -33 41 -69 -8
-22 -15 -26 -34 -23 -22 5 -24 2 -19 -27 4 -25 0 -36 -14 -46 -11 -8 -26 -32
-34 -54 -7 -22 -18 -44 -24 -50 -14 -13 -19 -132 -5 -140 18 -11 11 -117 -10
-164 -24 -52 -25 -67 -4 -106 10 -20 14 -52 13 -105 -2 -41 3 -97 11 -125 8
-28 14 -107 15 -180 2 -71 8 -152 15 -180 7 -27 12 -72 11 -100 -1 -39 4 -57
24 -84 22 -31 25 -45 25 -118 0 -56 -4 -86 -13 -95 -22 -20 -8 -44 31 -56 52
-16 102 -20 108 -10 3 4 14 8 24 8 14 0 22 12 32 47 20 72 41 69 34 -5 -4 -43
-2 -61 7 -65 18 -7 298 10 377 23 161 25 309 58 376 83 58 22 153 71 154 80 0
4 -9 7 -20 7 -11 0 -20 5 -20 11 0 7 7 8 18 4 65 -27 73 -5 9 23 l-44 19 4 49
c8 90 3 157 -12 174 -19 21 -19 30 0 30 8 0 15 6 15 14 0 7 24 39 53 71 46 48
59 57 90 58 21 0 37 5 37 9 0 4 -4 8 -10 8 -5 0 -10 7 -10 15 0 8 5 15 10 15
6 0 10 7 10 15 0 8 4 15 8 15 4 0 16 13 25 30 18 30 47 32 47 3 0 -8 5 -11 11
-8 6 4 9 0 7 -11 -2 -12 6 -20 24 -25 32 -8 45 3 50 46 4 42 21 38 63 -17 50
-66 198 -141 293 -148 51 -4 67 -9 76 -25 37 -66 99 -134 140 -154 25 -11 48
-21 52 -21 3 0 54 -24 112 -54 84 -42 125 -56 192 -66 96 -15 154 -40 222 -97
39 -31 61 -41 120 -52 145 -26 387 -100 498 -153 36 -16 81 -36 101 -43 53
-19 131 -62 159 -87 14 -13 33 -44 43 -69 10 -25 32 -64 50 -85 60 -70 113
-148 156 -227 l42 -78 -37 -67 c-191 -347 -378 -596 -654 -873 -280 -281 -608
-518 -955 -690 -110 -54 -207 -99 -215 -99 -8 0 -28 9 -45 20 -16 11 -44 20
-62 20 -17 0 -38 6 -45 13 -7 7 -39 18 -70 25 -86 17 -137 59 -93 76 8 3 15
12 15 20 0 22 11 26 93 32 83 7 128 -6 106 -32 -6 -8 -26 -14 -44 -14 -42 0
-48 -8 -28 -41 11 -19 30 -31 59 -38 24 -6 46 -15 49 -21 9 -15 51 -12 64 4
14 16 -17 40 -70 53 -18 5 -34 14 -37 21 -5 17 44 15 62 -3 19 -20 55 -19 78
2 13 12 18 30 18 68 0 45 -4 55 -31 79 -38 34 -107 66 -126 59 -8 -3 -23 4
-33 15 -12 13 -38 23 -72 27 -29 4 -73 16 -97 26 -24 10 -49 19 -57 19 -7 0
-25 11 -41 24 -16 13 -54 36 -85 51 -53 25 -57 29 -52 55 5 22 2 29 -15 35
-26 8 -26 16 -2 46 18 23 18 23 -18 41 -37 20 -82 18 -108 -3 -11 -10 -11 -15
2 -29 9 -10 24 -16 35 -13 27 7 49 -39 30 -62 -7 -8 -17 -15 -23 -15 -5 0 -26
-12 -45 -27 -33 -25 -38 -26 -79 -15 -24 7 -56 12 -73 12 -16 0 -32 4 -35 10
-3 6 -25 10 -48 11 -23 1 -53 4 -67 8 -14 4 -46 2 -72 -5 -48 -12 -158 -70
-158 -82 0 -9 220 -6 248 2 11 4 47 0 80 -9 33 -8 76 -15 96 -15 23 0 39 -5
42 -15 5 -11 16 -13 49 -8 35 4 46 2 64 -16 11 -11 28 -21 36 -21 9 0 18 -7
21 -15 4 -8 14 -15 23 -15 31 0 137 -58 154 -84 17 -25 17 -26 -9 -32 -14 -4
-30 -2 -37 5 -6 6 -21 11 -33 11 -13 0 -26 5 -29 10 -3 6 -17 10 -31 10 -13 0
-24 5 -24 10 0 6 -13 10 -29 10 -17 0 -33 5 -36 10 -3 6 -10 10 -16 10 -5 0
-9 -4 -9 -10 0 -5 7 -10 15 -10 9 0 15 -9 15 -25 0 -13 9 -33 20 -43 20 -18
20 -18 -8 -45 -20 -19 -31 -24 -42 -17 -8 5 -27 10 -41 10 -15 0 -46 15 -70
35 -24 19 -45 30 -47 25 -2 -6 -13 -10 -25 -10 -27 -1 -61 -45 -54 -71 4 -15
-1 -23 -21 -31 -15 -5 -40 -16 -57 -24 -16 -8 -55 -18 -85 -23 -84 -14 -130
-37 -130 -64 0 -13 6 -31 13 -40 13 -19 2 -20 197 24 52 11 107 27 121 35 23
12 35 11 95 -7 38 -12 82 -24 98 -28 35 -8 43 -24 21 -43 -9 -7 -29 -26 -46
-43 -29 -30 -29 -30 -35 -7 -5 17 -14 22 -40 22 -42 0 -97 -33 -104 -62 -8
-31 -80 -65 -164 -78 -69 -11 -152 -5 -162 11 -12 20 -23 6 -30 -36 -4 -31
-13 -49 -27 -57 -30 -15 -550 -3 -690 16 -453 64 -862 193 -1243 391 -183 95
-227 124 -218 144 4 9 11 79 16 156 18 279 30 386 62 564 9 47 14 87 11 89 -8
8 -9 3 -34 -88 -12 -47 -27 -101 -32 -120 -6 -19 -13 -48 -16 -65 -2 -16 -8
-39 -13 -50 -5 -11 -11 -33 -13 -50 -3 -16 -18 -93 -35 -170 -16 -77 -33 -157
-36 -177 -4 -21 -12 -38 -18 -38 -17 0 -191 125 -317 228 -344 280 -656 647
-881 1037 -103 179 -248 500 -291 643 -16 56 1 117 40 139 15 9 58 59 97 112
96 133 194 233 285 291 43 28 81 50 84 50 4 0 33 18 65 41 53 37 68 42 155 53
68 9 112 10 146 3 40 -8 66 -6 132 10 120 30 166 39 327 64 141 22 146 24 200
66 41 31 75 47 130 61 41 11 92 27 114 36 21 9 49 16 62 16 13 0 58 9 101 19
43 11 116 25 163 32 47 6 125 23 173 35 86 23 90 23 158 8 68 -15 160 -15 206
1 18 6 22 3 25 -21 l3 -28 15 28 c11 22 12 29 1 35 -10 6 -10 13 -2 30 6 11
16 30 21 41 6 11 10 26 10 34 0 8 3 16 8 18 4 2 20 20 36 42 25 33 28 44 23
87 -5 39 -3 49 8 49 20 0 19 26 -1 34 -11 4 -13 10 -7 19 6 6 7 23 3 37 -3 14
-2 47 3 74 5 27 6 59 3 70 -7 28 13 218 25 231 5 5 9 18 9 30 0 12 7 30 15 41
8 10 15 29 15 41 0 19 10 26 42 32 3 0 26 -8 51 -18z m1817 -62 c0 -5 -11 -9
-24 -9 -13 0 -26 -4 -28 -10 -1 -5 -33 -12 -70 -16 -65 -6 -68 -6 -68 15 0 19
5 21 73 21 39 0 79 4 87 9 15 10 30 6 30 -10z m-822 -154 c-3 -3 -9 2 -12 12
-6 14 -5 15 5 6 7 -7 10 -15 7 -18z m-358 -5 c0 -5 -4 -10 -10 -10 -5 0 -10 5
-10 10 0 6 5 10 10 10 6 0 10 -4 10 -10z m1254 -76 c40 -5 67 -15 87 -31 16
-14 33 -22 39 -18 15 9 82 15 103 9 26 -8 21 -49 -9 -69 -24 -15 -32 -16 -68
-4 -23 7 -45 13 -51 15 -5 1 -35 13 -65 28 -107 50 -172 95 -120 83 14 -4 52
-9 84 -13z m0 -370 c43 -22 58 -36 72 -67 18 -40 21 -84 6 -99 -4 -4 -25 9
-46 30 -68 65 -81 70 -147 53 -57 -15 -59 -15 -89 8 -24 17 -34 20 -45 11 -10
-8 -20 -5 -41 13 -31 27 -26 47 14 47 15 0 45 9 67 20 54 26 135 20 209 -16z
m171 -71 c-30 -83 -58 -143 -67 -143 -11 0 -10 48 1 52 5 2 11 22 14 45 2 30
12 50 33 71 16 16 31 27 33 26 2 -2 -4 -25 -14 -51z m-1541 -238 c3 -8 16 -15
29 -15 28 0 47 -34 40 -73 -4 -20 -12 -27 -37 -29 -27 -3 -31 -7 -34 -35 -3
-25 -8 -33 -23 -33 -11 0 -21 6 -23 13 -2 6 -8 27 -14 45 -8 24 -7 41 3 70 7
20 16 45 19 55 7 21 32 23 40 2z m1039 -72 c-7 -2 -21 -2 -30 0 -10 3 -4 5 12
5 17 0 24 -2 18 -5z m5324 -95 c-3 -8 -6 -5 -6 6 -1 11 2 17 5 13 3 -3 4 -12
1 -19z m6540 -39 c125 -24 145 -36 132 -81 -4 -17 -16 -36 -26 -44 -13 -10
-14 -13 -4 -14 18 0 -26 -40 -44 -40 -7 0 -18 -13 -24 -28 -7 -16 -18 -29 -26
-29 -11 0 -12 4 -4 14 9 10 8 13 -2 13 -8 0 -20 -9 -27 -21 -8 -12 -9 -18 -4
-15 16 10 44 -5 38 -20 -3 -8 -1 -14 3 -14 5 0 12 -7 15 -16 5 -13 0 -15 -32
-9 -21 3 -50 2 -64 -4 -22 -8 -25 -7 -21 9 3 10 14 23 26 29 l22 11 -22 -6
c-15 -3 -23 -1 -23 8 0 10 -3 9 -11 -2 -9 -12 -10 -11 -6 7 3 14 1 20 -8 17
-6 -3 -18 2 -25 11 -9 11 -9 15 -1 15 7 0 9 5 6 10 -4 6 -10 8 -15 5 -5 -3
-12 5 -16 19 -4 16 -17 29 -36 35 -26 9 -29 14 -23 33 4 13 8 32 10 43 7 48
17 66 36 60 13 -4 19 -1 19 9 0 21 26 20 157 -5z m-1080 -74 c-9 -8 -17 -19
-19 -25 -3 -10 -37 -21 -68 -22 -8 0 -22 -7 -32 -15 -12 -11 -18 -11 -24 -2
-5 8 -3 10 6 4 9 -5 11 -4 6 4 -5 8 -12 9 -20 2 -6 -5 -23 -11 -36 -13 -14 -2
-32 -7 -40 -12 -13 -7 -12 -6 1 8 16 17 191 85 222 86 16 0 17 -2 4 -15z m880
-207 c-3 -7 -5 -2 -5 12 0 14 2 19 5 13 2 -7 2 -19 0 -25z m796 5 c3 -16 1
-32 -5 -38 -8 -7 -8 -6 -3 4 5 9 4 12 -3 7 -13 -8 -1 -40 21 -52 8 -5 7 -2 -2
9 -12 15 -11 17 8 17 13 0 21 7 22 18 1 16 2 16 6 -1 3 -12 11 -15 28 -11 17
4 23 2 22 -10 -1 -8 1 -15 6 -15 28 -3 37 0 31 10 -5 8 -1 8 14 0 16 -9 19
-16 13 -38 -5 -16 -14 -27 -20 -25 -7 1 -10 -2 -6 -7 8 -14 -26 -51 -47 -51
-10 0 -18 -6 -18 -14 0 -22 -37 -30 -55 -12 -8 8 -15 20 -15 26 0 7 -8 9 -20
5 -12 -4 -20 -2 -20 5 0 6 -4 9 -8 6 -5 -3 -9 11 -10 30 -1 19 -4 39 -7 44 -3
5 0 12 6 16 8 5 9 3 4 -6 -5 -8 -4 -11 3 -6 6 4 8 14 5 23 -5 13 -2 15 11 10
11 -4 15 -3 11 4 -9 13 3 79 14 79 5 0 11 -12 14 -27z m-713 -17 c-10 -10 -30
0 -30 15 0 6 5 7 10 4 6 -3 10 0 10 7 0 9 3 9 10 -2 5 -8 5 -19 0 -24z m-225
14 c3 -5 1 -10 -4 -10 -6 0 -11 5 -11 10 0 6 2 10 4 10 3 0 8 -4 11 -10z m185
-5 c0 -8 -4 -15 -10 -15 -5 0 -10 7 -10 15 0 8 5 15 10 15 6 0 10 -7 10 -15z
m780 -1 c0 -8 -5 -12 -10 -9 -6 4 -8 11 -5 16 9 14 15 11 15 -7z m-540 -45 c0
-6 -4 -7 -10 -4 -5 3 -10 11 -10 16 0 6 5 7 10 4 6 -3 10 -11 10 -16z m-333
-15 c-9 -9 -28 6 -21 18 4 6 10 6 17 -1 6 -6 8 -13 4 -17z m370 -11 c-11 -10
-26 8 -20 23 5 15 7 14 15 -1 6 -9 7 -19 5 -22z m-267 -6 c0 -5 -4 -5 -10 -2
-5 3 -10 14 -10 23 0 15 2 15 10 2 5 -8 10 -19 10 -23z m25 3 c3 -5 1 -10 -4
-10 -6 0 -11 5 -11 10 0 6 2 10 4 10 3 0 8 -4 11 -10z m310 -42 c-26 -20 -46
-25 -27 -6 7 7 12 22 12 35 0 22 1 22 19 6 19 -16 19 -17 -4 -35z m-495 32 c0
-5 -2 -10 -4 -10 -3 0 -8 5 -11 10 -3 6 -1 10 4 10 6 0 11 -4 11 -10z m-105
-9 c3 -5 0 -13 -6 -17 -7 -4 -9 -3 -5 4 3 5 0 13 -6 15 -9 4 -10 6 -1 6 6 1
14 -3 18 -8z m-47 -18 c16 -16 15 -19 -7 -19 -11 0 -18 4 -15 7 2 4 0 10 -6
14 -5 3 -10 2 -10 -3 0 -13 -42 -30 -59 -24 -9 3 -3 11 20 23 37 20 57 20 77
2z m246 1 c8 -21 -12 -26 -23 -6 -7 14 -6 19 4 19 8 0 16 -6 19 -13z m-49 -32
c-3 -3 -11 0 -18 7 -9 10 -8 11 6 5 10 -3 15 -9 12 -12z m515 -1 c14 -27 13
-34 -4 -19 -8 7 -12 16 -10 20 2 3 -4 9 -13 11 -16 4 -17 5 -1 6 10 0 22 -8
28 -18z m-47 -12 c4 -16 3 -18 -9 -8 -7 6 -11 15 -8 20 8 13 11 11 17 -12z
m-563 -15 c0 -2 -7 -4 -15 -4 -8 0 -15 4 -15 10 0 5 7 7 15 4 8 -4 15 -8 15
-10z m45 -14 c-3 -5 -12 -10 -18 -10 -7 0 -6 4 3 10 19 12 23 12 15 0z m85 1
c0 -6 -4 -13 -10 -16 -5 -3 -10 1 -10 9 0 9 5 16 10 16 6 0 10 -4 10 -9z m165
-1 c3 -5 1 -10 -4 -10 -6 0 -11 5 -11 10 0 6 2 10 4 10 3 0 8 -4 11 -10z m263
-3 c14 6 15 4 4 -9 -11 -14 -9 -24 9 -62 12 -26 19 -50 15 -53 -3 -4 -14 12
-23 36 -10 25 -19 37 -23 30 -4 -6 -8 8 -8 32 0 24 2 39 5 32 2 -7 12 -9 21
-6z m-708 -27 c0 -5 -5 -10 -11 -10 -5 0 -7 5 -4 10 3 6 8 10 11 10 2 0 4 -4
4 -10z m325 0 c-3 -5 -11 -10 -16 -10 -6 0 -7 5 -4 10 3 6 11 10 16 10 6 0 7
-4 4 -10z m345 -5 c4 3 6 -4 3 -16 -4 -16 -8 -17 -14 -7 -5 7 -8 20 -8 28 0
10 2 11 6 2 2 -6 8 -10 13 -7z m79 2 c13 4 13 3 2 -5 -8 -6 -11 -18 -7 -28 4
-15 1 -13 -14 5 -21 25 -29 54 -9 34 6 -6 19 -9 28 -6z m-509 -11 c0 -3 -4 -8
-10 -11 -5 -3 -10 -1 -10 4 0 6 5 11 10 11 6 0 10 -2 10 -4z m400 -50 c-1 -31
-1 -31 -15 9 -18 50 -18 50 0 35 8 -7 15 -27 15 -44z m-574 5 c6 -8 18 -12 28
-8 25 10 19 -11 -9 -29 -20 -13 -28 -14 -40 -4 -8 7 -15 10 -15 7 0 -3 -3 -13
-6 -21 -5 -12 -2 -15 10 -10 12 5 15 2 9 -11 -5 -15 -1 -14 25 5 18 13 32 27
32 32 0 4 10 12 22 19 18 10 20 9 15 -5 -7 -17 3 -21 19 -7 15 15 50 17 66 3
15 -12 62 -21 143 -26 22 -2 50 -8 61 -14 12 -6 35 -14 51 -17 17 -2 43 -12
59 -20 32 -16 84 -20 84 -6 0 5 10 9 23 9 19 0 73 8 87 12 7 3 59 -1 81 -5 26
-5 76 -34 60 -35 -11 0 -11 -4 2 -18 10 -10 17 -24 17 -30 0 -6 9 -16 20 -22
11 -6 20 -16 20 -22 0 -7 -5 -6 -15 2 -13 10 -15 9 -15 -9 0 -12 3 -20 8 -18
4 3 8 -6 8 -19 1 -13 -4 -24 -10 -24 -7 0 -13 14 -14 33 -2 40 -37 127 -52
127 -16 0 -12 -35 8 -61 10 -13 23 -36 30 -52 l12 -27 -25 16 c-14 9 -25 20
-25 25 0 5 -7 9 -15 9 -8 0 -15 8 -15 18 0 14 -2 15 -10 2 -8 -12 -12 -12 -18
-3 -12 20 -4 -107 10 -151 10 -32 10 -40 -3 -50 -8 -6 -14 -24 -14 -39 1 -26
0 -27 -12 -11 -12 16 -13 16 -13 -7 0 -21 -7 -28 -35 -36 -21 -7 -37 -7 -41
-2 -24 39 -26 -47 -3 -109 5 -13 9 -34 9 -47 0 -28 38 -39 56 -16 9 11 13 11
27 -3 9 -9 14 -23 11 -30 -3 -7 3 -21 12 -31 16 -16 18 -16 30 7 11 19 13 20
14 5 0 -16 2 -16 21 2 12 11 36 27 53 35 38 18 62 46 58 67 -1 9 5 22 14 30
15 12 16 11 9 -21 -4 -19 -27 -77 -52 -128 -25 -51 -44 -95 -42 -97 2 -2 36
-5 75 -6 40 -1 114 -9 166 -18 60 -11 107 -14 132 -9 21 4 59 6 84 3 26 -3 72
-7 103 -9 30 -2 70 -7 88 -11 18 -4 42 -8 54 -10 36 -6 51 -10 63 -17 5 -4 29
-7 52 -6 32 0 40 3 32 13 -5 6 -7 15 -3 18 12 12 21 7 19 -10 -2 -27 57 -25
118 5 63 30 60 27 61 60 0 15 6 26 13 24 7 -1 11 1 11 5 -3 18 1 36 7 30 7 -7
22 7 47 43 12 18 17 20 17 8 0 -19 28 -18 41 3 5 8 9 9 9 4 0 -6 10 -11 22
-12 27 -2 30 -7 77 -128 95 -240 131 -425 138 -707 6 -197 -1 -313 -17 -303
-15 9 -63 -63 -57 -85 3 -11 1 -18 -4 -14 -5 3 -9 0 -9 -5 0 -13 32 -47 49
-52 9 -3 7 -31 -9 -109 -50 -246 -165 -513 -327 -763 -108 -165 -334 -413
-341 -374 -4 19 -22 24 -22 6 0 -6 -7 -9 -15 -5 -8 3 -14 2 -14 -2 3 -18 -2
-26 -10 -14 -4 7 -19 14 -32 14 -13 1 -29 6 -36 10 -7 6 -20 5 -32 -1 -29 -16
-81 -14 -87 4 -5 12 -8 12 -19 1 -12 -12 -73 -13 -102 -2 -7 3 -13 4 -14 3 0
-1 -5 -58 -10 -127 -5 -69 -12 -146 -15 -172 l-6 -46 -126 -62 c-141 -70 -383
-155 -415 -146 -12 3 -28 -1 -37 -8 -8 -8 -29 -17 -46 -20 l-31 -7 -7 57 c-7
63 3 86 29 64 13 -10 15 -9 15 7 0 43 -46 57 -80 23 -24 -24 -26 -76 -6 -124
14 -34 14 -34 -15 -40 -15 -3 -57 -8 -92 -12 -60 -6 -64 -5 -70 16 -9 35 2 50
49 61 80 20 118 97 76 150 -24 28 -73 30 -110 3 -15 -11 -40 -45 -55 -75 -24
-46 -28 -62 -24 -110 l5 -56 -97 -7 c-124 -8 -326 8 -370 30 -27 14 -38 15
-53 5 -22 -14 -38 -7 -38 17 0 9 -12 25 -26 35 l-25 18 -11 -31 c-11 -34 -7
-34 -101 -9 -38 10 -38 11 -23 32 9 12 19 29 23 37 10 23 26 36 68 59 31 17
40 18 49 7 6 -7 19 -16 30 -20 14 -5 17 -2 12 9 -3 9 0 15 9 15 8 0 15 -9 15
-19 0 -18 34 -51 52 -51 5 0 8 11 8 25 0 14 6 25 13 25 6 0 22 3 35 6 18 5 22
2 22 -18 0 -54 67 -101 110 -78 16 9 20 8 20 -5 0 -14 14 -23 65 -39 18 -5 20
-2 17 32 -3 32 39 216 52 229 7 7 66 -7 66 -15 0 -4 -16 -56 -35 -117 -40
-128 -42 -141 -16 -155 31 -16 54 -13 47 7 -5 13 57 227 70 242 2 2 15 -1 28
-7 20 -9 25 -8 30 4 10 26 7 32 -19 38 -52 13 -12 23 120 30 111 5 140 4 165
-9 33 -17 100 -20 100 -4 0 5 14 15 30 20 17 6 30 15 30 19 0 10 -26 20 -51
20 -10 0 -19 5 -19 10 0 15 -61 50 -86 50 -23 0 -54 38 -54 65 0 18 -16 20
-23 3 -3 -8 -6 -5 -6 5 -1 17 -7 18 -61 13 -33 -3 -63 -6 -67 -7 -44 -7 -39
29 6 40 98 26 135 27 163 7 30 -21 51 -13 61 24 8 33 -2 35 -167 46 -97 6
-116 4 -116 -8 0 -7 -10 -15 -22 -15 -56 -5 -70 -13 -66 -38 3 -13 1 -22 -3
-19 -5 3 -9 0 -9 -7 0 -8 -13 -10 -41 -6 -28 4 -49 1 -65 -9 -27 -18 -86 -22
-92 -6 -3 9 -9 9 -23 2 -15 -9 -19 -7 -19 6 0 10 -5 14 -15 10 -9 -3 -25 4
-36 15 -12 12 -15 19 -8 17 17 -6 39 15 39 36 0 21 5 20 39 -5 29 -22 54 -19
45 4 -5 13 1 15 73 20 51 4 70 17 24 17 -29 0 -31 2 -21 20 13 24 6 39 -18 38
-9 0 -26 3 -36 7 -15 6 -17 5 -11 -5 5 -8 3 -11 -6 -8 -8 3 -29 -1 -47 -9 -18
-7 -37 -11 -42 -8 -5 3 -11 1 -15 -5 -4 -6 -11 -8 -16 -5 -5 4 -9 -2 -9 -12 0
-10 -9 -24 -20 -31 -17 -10 -23 -10 -36 3 -17 16 -28 20 -20 6 3 -5 -1 -12
-10 -15 -11 -4 -14 -13 -10 -31 4 -14 2 -25 -4 -25 -5 0 -10 5 -10 10 0 6 -7
10 -15 10 -8 0 -15 6 -16 13 0 9 -2 9 -5 0 -3 -6 2 -24 11 -40 16 -27 16 -27
0 -8 -12 14 -19 16 -22 8 -3 -7 -12 -13 -20 -13 -13 0 -13 3 -3 15 10 12 9 15
-5 15 -13 0 -16 -6 -11 -24 7 -29 -12 -48 -45 -43 -18 3 -25 11 -27 31 -3 24
-5 26 -15 11 -11 -14 -16 -15 -49 -1 -33 14 -37 14 -42 -1 -4 -9 -1 -20 6 -25
10 -6 10 -8 -1 -8 -7 0 -11 -6 -7 -15 3 -8 1 -15 -4 -15 -6 0 -10 6 -10 14 0
20 -14 28 -35 20 -12 -5 -16 -16 -13 -40 2 -18 0 -30 -4 -28 -5 3 -11 -3 -15
-12 -6 -16 -7 -16 -12 -1 -6 15 -11 13 -39 -13 -41 -37 -44 -37 -40 -4 2 16
-3 29 -11 32 -10 3 -12 -2 -7 -22 4 -15 2 -26 -4 -26 -5 0 -10 6 -10 13 0 8
-4 7 -10 -3 -5 -8 -10 -10 -10 -5 0 6 5 16 11 22 6 6 9 17 6 25 -3 8 -9 3 -17
-14 -8 -17 -18 -24 -28 -21 -12 5 -14 1 -8 -20 7 -31 0 -34 -27 -9 -11 9 -17
11 -13 5 4 -7 2 -13 -4 -13 -6 0 -8 10 -5 23 5 18 2 24 -12 24 -10 0 -23 -4
-29 -8 -6 -5 -18 -3 -29 5 -15 11 -23 11 -43 0 -28 -14 -46 -9 -38 11 3 8 -4
13 -20 13 -13 0 -24 -4 -24 -8 0 -4 -21 -2 -46 3 -41 10 -48 9 -60 -7 -11 -16
-17 -17 -45 -7 -27 9 -34 9 -41 -4 -28 -48 -140 26 -339 224 -329 330 -538
729 -614 1175 -9 54 -14 101 -10 104 11 11 77 1 92 -13 8 -8 12 -15 8 -15 -3
0 -3 -5 1 -11 4 -8 12 -1 22 17 8 16 43 73 79 128 35 54 67 106 70 115 3 9 54
64 112 124 91 92 119 114 196 153 49 24 77 35 60 22 -50 -37 -86 -80 -81 -95
3 -8 1 -11 -4 -8 -11 7 -41 -55 -34 -67 14 -22 44 -4 69 38 17 28 46 58 79 79
30 19 69 50 87 71 19 20 48 43 64 51 28 13 24 13 -55 8 -47 -4 -101 -9 -120
-11 -38 -4 -163 -13 -193 -14 -10 0 -15 -4 -12 -10 3 -5 -1 -10 -10 -10 -9 0
-14 -4 -10 -9 3 -5 -1 -16 -9 -24 -8 -8 -13 -17 -10 -20 3 -2 -4 -7 -16 -10
-22 -6 -26 3 -10 19 7 7 6 11 -4 11 -8 0 -13 -4 -10 -8 2 -4 0 -10 -5 -13 -9
-6 -26 22 -23 37 1 4 -3 7 -9 7 -7 0 -17 7 -23 16 -8 11 -20 13 -39 9 -15 -4
-25 -11 -22 -15 3 -4 -7 -10 -22 -13 -30 -6 -64 26 -56 53 3 10 1 9 -7 -3 -9
-13 -8 -21 4 -33 26 -26 18 -29 -9 -4 -14 13 -25 30 -25 37 0 8 -4 11 -10 8
-5 -3 -10 -2 -10 3 0 5 -15 13 -32 17 -18 4 -36 9 -40 10 -5 1 -12 3 -18 4
-41 5 64 403 160 604 22 47 46 87 53 90 7 2 37 1 67 -3 89 -14 189 -23 275
-25 44 -1 82 -4 85 -5 10 -5 58 -10 155 -15 55 -3 118 -7 140 -10 137 -13 270
-22 495 -30 80 -3 165 -10 190 -15 25 -5 48 -9 51 -10 4 0 9 22 13 50 4 27 13
68 21 91 8 23 15 52 15 65 0 28 33 48 66 40 27 -7 28 -5 48 115 10 61 14 71
23 55 10 -18 11 -17 17 10 4 17 16 34 29 39 12 6 34 33 49 60 51 94 59 122 32
111 -9 -3 -12 -2 -9 5 4 5 12 8 18 6 5 -1 24 12 41 31 25 27 40 34 74 35 26 1
42 7 42 15 0 6 -5 12 -11 12 -5 0 -8 4 -4 10 7 11 36 1 51 -19z m820 -16 c26
-38 51 -120 33 -109 -5 3 -9 16 -9 29 0 13 -4 27 -10 30 -5 3 -17 23 -26 43
-10 20 -20 42 -22 47 -9 19 7 0 34 -40z m-186 -10 c0 -8 -4 -15 -10 -15 -5 0
-7 7 -4 15 4 8 8 15 10 15 2 0 4 -7 4 -15z m105 5 c3 -5 -1 -10 -9 -10 -9 0
-16 5 -16 10 0 6 4 10 9 10 6 0 13 -4 16 -10z m-905 -35 c-7 -9 -15 -13 -17
-11 -7 7 7 26 19 26 6 0 6 -6 -2 -15z m-84 -62 c-11 -11 -17 4 -9 23 7 18 8
18 11 1 2 -10 1 -21 -2 -24z m-6063 0 c-7 -2 -21 -2 -30 0 -10 3 -4 5 12 5 17
0 24 -2 18 -5z m6044 -80 c-10 -22 -13 -24 -15 -9 -2 10 2 22 10 27 19 12 19
12 5 -18z m1153 -5 c0 -5 4 -7 9 -3 5 3 12 -4 16 -15 3 -11 18 -34 33 -52 l26
-31 -24 13 c-14 7 -29 18 -33 24 -5 6 -6 2 -3 -10 4 -14 2 -21 -8 -21 -9 0
-13 4 -10 9 3 4 -2 17 -10 29 -8 12 -12 28 -9 35 3 8 0 21 -7 29 -11 13 -10
14 4 9 9 -3 16 -10 16 -16z m-1246 -13 c-4 -8 -8 -15 -10 -15 -2 0 -4 7 -4 15
0 8 4 15 10 15 5 0 7 -7 4 -15z m1187 -97 c8 -16 8 -19 -2 -16 -6 2 -16 14
-20 27 -11 27 6 19 22 -11z m-76 2 c3 -5 2 -10 -4 -10 -5 0 -13 5 -16 10 -3 6
-2 10 4 10 5 0 13 -4 16 -10z m-7055 -56 c0 -13 10 -15 53 -14 75 3 107 1 107
-7 0 -14 -163 -15 -172 -1 -11 18 -10 38 2 38 6 0 10 -7 10 -16z m7140 -20 c0
-8 -4 -12 -10 -9 -5 3 -10 10 -10 16 0 5 5 9 10 9 6 0 10 -7 10 -16z m150 -38
c0 -3 -4 -8 -10 -11 -5 -3 -10 -1 -10 4 0 6 5 11 10 11 6 0 10 -2 10 -4z m-10
-30 c0 -3 -4 -8 -10 -11 -5 -3 -10 -1 -10 4 0 6 5 11 10 11 6 0 10 -2 10 -4z
m-27 -39 c3 -8 1 -20 -4 -28 -6 -10 -9 -7 -9 14 0 29 5 35 13 14z m-8978 -17
c77 -10 122 -18 100 -19 -22 0 -89 6 -150 14 -60 8 -113 15 -117 15 -4 0 -9
-10 -11 -22 -4 -20 -4 -19 -6 5 -1 32 -9 32 184 7z m343 -40 c41 -7 42 -8 12
-8 -19 0 -75 6 -125 13 l-90 14 78 -5 c43 -3 99 -9 125 -14z m125 -17 c-13 -2
-33 -2 -45 0 -13 2 -3 4 22 4 25 0 35 -2 23 -4z m137 -12 c42 -8 42 -9 10 -9
-19 0 -55 3 -80 7 -42 8 -42 9 -10 9 19 0 55 -3 80 -7z m108 -18 c-10 -2 -28
-2 -40 0 -13 2 -5 4 17 4 22 1 32 -1 23 -4z m192 -17 c47 -8 72 -14 55 -14
-16 0 -70 6 -120 13 -49 7 -74 13 -55 13 19 0 73 -5 120 -12z m158 -23 c-10
-2 -28 -2 -40 0 -13 2 -5 4 17 4 22 1 32 -1 23 -4z m137 -13 c40 -6 43 -7 15
-8 -19 0 -57 3 -85 8 -40 6 -43 7 -15 8 19 0 58 -3 85 -8z m113 -17 c-10 -2
-28 -2 -40 0 -13 2 -5 4 17 4 22 1 32 -1 23 -4z m217 -17 c19 -1 20 -6 15
-111 l-5 -110 -3 102 -3 102 -32 6 c-18 2 -59 9 -92 14 -55 9 -54 9 20 3 44
-3 89 -6 100 -6z m-1529 -71 c17 -13 16 -13 -14 -2 -26 9 -37 9 -55 -2 -20
-13 -21 -13 -8 2 17 21 51 22 77 2z m-199 -42 c-3 -10 -5 -4 -5 12 0 17 2 24
5 18 2 -7 2 -21 0 -30z m326 30 c-7 -2 -19 -2 -25 0 -7 3 -2 5 12 5 14 0 19
-2 13 -5z m-55 -28 c-6 -14 -13 -23 -15 -21 -5 5 15 46 22 46 3 0 -1 -11 -7
-25z m93 8 c13 -16 12 -17 -3 -4 -10 7 -18 15 -18 17 0 8 8 3 21 -13z m-186
-14 c11 -16 1 -19 -13 -3 -7 8 -8 14 -3 14 5 0 13 -5 16 -11z m232 -122 c-2
-23 -3 -1 -3 48 0 50 1 68 3 42 2 -26 2 -67 0 -90z m50 0 c-2 -23 -3 -1 -3 48
0 50 1 68 3 42 2 -26 2 -67 0 -90z m-230 86 c-3 -10 -5 -4 -5 12 0 17 2 24 5
18 2 -7 2 -21 0 -30z m-130 -10 c-3 -10 -5 -4 -5 12 0 17 2 24 5 18 2 -7 2
-21 0 -30z m50 15 c-3 -8 -6 -5 -6 6 -1 11 2 17 5 13 3 -3 4 -12 1 -19z m183
12 c0 -5 -7 -7 -15 -4 -8 4 -15 8 -15 10 0 2 7 4 15 4 8 0 15 -4 15 -10z m47
-12 c-3 -8 -6 -5 -6 6 -1 11 2 17 5 13 3 -3 4 -12 1 -19z m390 6 c-3 -3 -12
-4 -19 -1 -8 3 -5 6 6 6 11 1 17 -2 13 -5z m-470 -51 c-3 -10 -5 -4 -5 12 0
17 2 24 5 18 2 -7 2 -21 0 -30z m40 -55 c-2 -18 -4 -4 -4 32 0 36 2 50 4 33 2
-18 2 -48 0 -65z m-90 35 c-3 -10 -5 -2 -5 17 0 19 2 27 5 18 2 -10 2 -26 0
-35z m140 -35 c-2 -18 -4 -6 -4 27 0 33 2 48 4 33 2 -15 2 -42 0 -60z m-400
15 c-3 -10 -5 -2 -5 17 0 19 2 27 5 18 2 -10 2 -26 0 -35z m216 30 c-7 -2 -19
-2 -25 0 -7 3 -2 5 12 5 14 0 19 -2 13 -5z m24 -75 c-2 -13 -4 -3 -4 22 0 25
2 35 4 23 2 -13 2 -33 0 -45z m390 0 c-2 -13 -4 -3 -4 22 0 25 2 35 4 23 2
-13 2 -33 0 -45z m-480 15 c-3 -10 -5 -4 -5 12 0 17 2 24 5 18 2 -7 2 -21 0
-30z m50 11 c-3 -3 -12 -4 -19 -1 -8 3 -5 6 6 6 11 1 17 -2 13 -5z m60 -61
c-3 -10 -5 -2 -5 17 0 19 2 27 5 18 2 -10 2 -26 0 -35z m280 -15 c-2 -13 -4
-3 -4 22 0 25 2 35 4 23 2 -13 2 -33 0 -45z m1220 -90 c-2 -29 -3 -6 -3 52 0
58 1 81 3 53 2 -29 2 -77 0 -105z m-1650 120 c-3 -8 -6 -5 -6 6 -1 11 2 17 5
13 3 -3 4 -12 1 -19z m230 -20 c-3 -8 -6 -5 -6 6 -1 11 2 17 5 13 3 -3 4 -12
1 -19z m50 0 c-3 -8 -6 -5 -6 6 -1 11 2 17 5 13 3 -3 4 -12 1 -19z m-212 -6
c-3 -3 -11 0 -18 7 -9 10 -8 11 6 5 10 -3 15 -9 12 -12z m305 -28 c0 -2 -7 -4
-15 -4 -8 0 -15 4 -15 10 0 5 7 7 15 4 8 -4 15 -8 15 -10z m-310 -17 c13 -5
13 -6 -1 -6 -8 -1 -24 6 -35 15 -19 15 -19 15 1 6 11 -5 27 -12 35 -15z m45
-6 c-6 -5 -25 10 -25 20 0 5 6 4 14 -3 8 -7 12 -15 11 -17z m63 4 c-3 -3 -9 2
-12 12 -6 14 -5 15 5 6 7 -7 10 -15 7 -18z m249 -27 c-3 -8 -6 -5 -6 6 -1 11
2 17 5 13 3 -3 4 -12 1 -19z m-194 5 c-7 -2 -19 -2 -25 0 -7 3 -2 5 12 5 14 0
19 -2 13 -5z m114 -9 c-3 -3 -12 -4 -19 -1 -8 3 -5 6 6 6 11 1 17 -2 13 -5z
m1320 -331 c-2 -27 -3 -5 -3 47 0 52 1 74 3 48 2 -27 2 -69 0 -95z m10 -255
c-2 -35 -3 -9 -3 57 0 66 1 94 3 63 2 -32 2 -86 0 -120z m4813 124 c0 -5 -7
-17 -15 -28 -14 -18 -14 -17 -4 9 12 27 19 34 19 19z m-4803 -324 c-2 -18 -4
-6 -4 27 0 33 2 48 4 33 2 -15 2 -42 0 -60z m403 -498 c0 -6 -28 -10 -62 -10
-35 0 -80 -3 -100 -6 -24 -4 -38 -3 -38 4 0 10 42 16 153 20 26 1 47 -2 47 -8z
m-5414 -64 c26 -20 6 -43 -24 -27 -11 6 -30 11 -41 11 -23 0 -28 15 -8 23 23
10 53 7 73 -7z m11234 -873 c-11 -17 -11 -17 -6 0 3 10 6 24 7 30 0 9 2 9 5 0
3 -7 0 -20 -6 -30z m30 -13 c0 -5 -2 -10 -4 -10 -3 0 -8 5 -11 10 -3 6 -1 10
4 10 6 0 11 -4 11 -10z m10 -40 c0 -5 -5 -10 -11 -10 -5 0 -7 5 -4 10 3 6 8
10 11 10 2 0 4 -4 4 -10z m-296 -15 c-4 -8 -11 -15 -16 -15 -6 0 -5 6 2 15 7
8 14 15 16 15 2 0 1 -7 -2 -15z m38 -27 c-9 -9 -12 -7 -12 12 0 19 3 21 12 12
9 -9 9 -15 0 -24z m-458 -131 c-10 -26 -22 -20 -16 9 3 15 8 22 14 16 5 -5 6
-16 2 -25z m827 -164 c-15 -50 -21 -58 -44 -61 -52 -6 -48 65 6 98 52 32 57
27 38 -37z m409 23 c0 -28 -45 -86 -67 -86 -16 0 -12 20 14 78 19 39 53 45 53
8z"/>
<path d="M9568 8053 c7 -3 16 -2 19 1 4 3 -2 6 -13 5 -11 0 -14 -3 -6 -6z"/>
<path d="M9656 8021 c5 -5 20 -12 34 -15 l25 -7 -25 15 c-28 17 -50 21 -34 7z"/>
<path d="M9725 7990 c3 -5 8 -10 11 -10 2 0 4 5 4 10 0 6 -5 10 -11 10 -5 0
-7 -4 -4 -10z"/>
<path d="M9750 7978 c0 -6 3 -8 7 -5 3 4 17 0 30 -8 13 -9 23 -12 23 -7 0 5
-11 14 -25 20 -32 15 -35 15 -35 0z"/>
<path d="M9720 7570 c0 -5 7 -10 15 -10 8 0 70 -20 137 -44 68 -24 170 -61
228 -81 58 -20 119 -42 135 -50 17 -7 82 -30 145 -50 106 -35 122 -44 225
-125 61 -48 120 -92 130 -98 11 -6 74 -55 140 -110 78 -65 123 -96 127 -88 5
6 8 2 8 -11 0 -13 5 -22 13 -20 6 1 11 -4 10 -10 -2 -7 1 -13 6 -13 5 0 17 -7
26 -16 9 -9 18 -14 21 -12 2 3 -44 61 -104 129 -60 68 -159 187 -221 264 -102
128 -123 148 -234 227 -89 63 -133 88 -162 92 -22 3 -148 10 -280 16 -132 5
-268 12 -302 15 -40 4 -63 2 -63 -5z"/>
<path d="M10410 7302 c8 -5 26 -13 40 -16 17 -5 20 -4 10 2 -8 5 -26 13 -40
16 -17 5 -20 4 -10 -2z"/>
<path d="M11331 6563 c37 -61 105 -165 132 -202 l26 -33 9 38 c28 113 30 123
18 132 -23 18 -185 102 -196 102 -7 0 -3 -15 11 -37z"/>
<path d="M11347 6485 c20 -41 44 -77 51 -80 12 -4 12 -2 0 17 -8 13 -30 49
-48 81 -17 31 -34 57 -36 57 -2 0 13 -34 33 -75z"/>
<path d="M11410 6386 c0 -2 8 -10 18 -17 15 -13 16 -12 3 4 -13 16 -21 21 -21
13z"/>
<path d="M11280 6311 c0 -6 4 -13 10 -16 6 -3 7 1 4 9 -7 18 -14 21 -14 7z"/>
<path d="M11283 6265 c0 -8 4 -12 9 -9 5 3 6 10 3 15 -9 13 -12 11 -12 -6z"/>
<path d="M11280 6229 c0 -5 5 -7 10 -4 6 3 10 8 10 11 0 2 -4 4 -10 4 -5 0
-10 -5 -10 -11z"/>
<path d="M14370 9451 c0 -5 5 -13 10 -16 6 -3 10 -2 10 4 0 5 -4 13 -10 16 -5
3 -10 2 -10 -4z"/>
<path d="M13765 9320 c3 -5 11 -10 16 -10 6 0 7 5 4 10 -3 6 -11 10 -16 10 -6
0 -7 -4 -4 -10z"/>
<path d="M14375 9273 c-16 -2 -34 -9 -39 -14 -6 -5 -20 -9 -32 -9 -13 0 -26
-5 -29 -11 -4 -5 -12 -8 -18 -6 -11 3 -36 -20 -37 -33 0 -7 63 -6 75 2 10 6
107 22 200 33 60 7 85 19 61 28 -22 9 -146 16 -181 10z"/>
<path d="M13705 9246 c-127 -41 -126 -42 93 -38 114 1 214 4 222 5 33 6 -91
38 -154 39 -37 1 -70 6 -72 10 -7 10 -8 10 -89 -16z"/>
<path d="M14360 9196 c0 -10 9 -16 21 -16 24 0 21 23 -4 28 -10 2 -17 -3 -17
-12z"/>
<path d="M13690 9143 c14 -3 31 -10 39 -16 11 -10 13 -9 9 3 -3 9 -18 16 -39
17 -24 1 -26 0 -9 -4z"/>
<path d="M14701 9110 c14 -31 19 -36 19 -24 0 6 -7 19 -16 30 -14 18 -14 18
-3 -6z"/>
<path d="M8550 8870 c8 -5 20 -10 25 -10 6 0 3 5 -5 10 -8 5 -19 10 -25 10 -5
0 -3 -5 5 -10z"/>
<path d="M14165 8660 c-4 -6 5 -10 20 -10 15 0 24 4 20 10 -3 6 -12 10 -20 10
-8 0 -17 -4 -20 -10z"/>
<path d="M14153 8629 c-13 -13 -4 -69 11 -69 6 0 5 -4 -3 -9 -9 -6 -11 -15 -6
-27 4 -11 9 -25 11 -32 4 -23 10 -23 32 -3 19 16 20 20 7 31 -10 8 -15 30 -15
60 0 48 -16 70 -37 49z"/>
<path d="M14993 8623 c15 -2 37 -2 50 0 12 2 0 4 -28 4 -27 0 -38 -2 -22 -4z"/>
<path d="M14100 8580 c0 -5 5 -10 10 -10 6 0 10 5 10 10 0 6 -4 10 -10 10 -5
0 -10 -4 -10 -10z"/>
<path d="M14065 8540 c-3 -5 -1 -10 4 -10 6 0 11 5 11 10 0 6 -2 10 -4 10 -3
0 -8 -4 -11 -10z"/>
<path d="M14067 8509 c-30 -17 -43 -61 -41 -131 2 -94 16 -112 97 -125 35 -6
91 -22 124 -35 49 -20 65 -22 89 -14 23 9 29 17 29 41 0 26 4 30 30 32 17 1
39 3 50 5 23 4 57 65 49 90 -5 18 -64 53 -64 38 0 -4 -15 -10 -34 -12 -19 -2
-32 0 -30 4 3 5 -10 8 -28 8 -18 0 -49 1 -68 2 -19 0 -72 -3 -117 -7 -89 -9
-90 -8 -63 48 7 15 19 27 27 27 7 0 13 5 13 10 0 6 -9 10 -21 10 -11 0 -17 5
-14 10 8 13 -5 12 -28 -1z"/>
<path d="M14526 8287 c3 -8 12 -18 20 -21 8 -3 14 -12 14 -20 0 -8 6 -19 13
-23 7 -4 26 -38 42 -75 16 -38 33 -68 37 -68 13 0 9 18 -4 24 -9 4 -9 8 -2 11
20 10 -3 115 -26 115 -5 0 -10 11 -10 24 0 21 -5 25 -30 24 -16 -1 -36 5 -45
12 -13 11 -14 10 -9 -3z"/>
<path d="M13910 8240 c0 -5 5 -10 10 -10 6 0 10 5 10 10 0 6 -4 10 -10 10 -5
0 -10 -4 -10 -10z"/>
<path d="M14751 8164 c0 -11 3 -14 6 -6 3 7 2 16 -1 19 -3 4 -6 -2 -5 -13z"/>
<path d="M14280 8140 c0 -11 5 -20 10 -20 6 0 10 9 10 20 0 11 -4 20 -10 20
-5 0 -10 -9 -10 -20z"/>
<path d="M13160 6998 c0 -17 114 -256 130 -272 4 -4 13 -7 19 -5 7 3 0 27 -18
64 -43 89 -131 233 -131 213z"/>
<path d="M14410 6155 c0 -2 17 -12 37 -20 21 -9 49 -26 63 -38 l25 -21 -25 26
c-23 25 -100 66 -100 53z"/>
<path d="M14235 6110 c-3 -6 1 -7 9 -4 18 7 21 14 7 14 -6 0 -13 -4 -16 -10z"/>
<path d="M14220 6005 c-27 -28 -31 -37 -21 -49 11 -12 17 -9 47 24 20 22 33
44 29 50 -10 16 -19 12 -55 -25z"/>
<path d="M14553 5975 c0 -27 2 -38 4 -22 2 15 2 37 0 50 -2 12 -4 0 -4 -28z"/>
<path d="M14268 5963 c-29 -33 -39 -62 -28 -76 5 -6 19 -23 29 -37 l19 -25 9
35 c8 30 14 35 38 35 15 0 30 -6 33 -12 2 -8 -5 -13 -17 -13 -28 0 -37 -20
-12 -27 27 -7 27 -21 -1 -25 -25 -4 -37 -28 -13 -28 8 0 27 7 40 16 13 9 29
13 34 10 17 -11 1 -34 -32 -47 -18 -7 -33 -14 -35 -15 -3 -2 11 -27 34 -62 3
-5 46 18 66 36 14 11 15 18 7 29 -9 9 -8 17 0 27 17 20 -66 161 -85 145 -9 -7
-17 -2 -30 20 -21 35 -34 38 -56 14z"/>
<path d="M14541 5884 c0 -11 3 -14 6 -6 3 7 2 16 -1 19 -3 4 -6 -2 -5 -13z"/>
<path d="M14531 5844 c0 -11 3 -14 6 -6 3 7 2 16 -1 19 -3 4 -6 -2 -5 -13z"/>
<path d="M15141 5804 c0 -11 3 -14 6 -6 3 7 2 16 -1 19 -3 4 -6 -2 -5 -13z"/>
<path d="M14225 5790 c10 -11 20 -20 23 -20 3 0 -3 9 -13 20 -10 11 -20 20
-23 20 -3 0 3 -9 13 -20z"/>
<path d="M14515 5799 c-4 -6 -5 -12 -2 -15 2 -3 7 2 10 11 7 17 1 20 -8 4z"/>
<path d="M14100 5755 c0 -24 43 -76 82 -101 29 -18 60 -28 93 -30 49 -3 49 -3
10 5 -83 17 -129 46 -166 106 -11 17 -19 26 -19 20z"/>
<path d="M14434 5688 l-19 -23 23 19 c21 18 27 26 19 26 -2 0 -12 -10 -23 -22z"/>
<path d="M14338 5633 c7 -3 16 -2 19 1 4 3 -2 6 -13 5 -11 0 -14 -3 -6 -6z"/>
<path d="M13322 8755 c-9 -11 -10 -20 -3 -33 8 -15 11 -14 20 11 6 16 11 30
11 33 0 9 -16 3 -28 -11z"/>
<path d="M13275 8700 c-3 -5 1 -10 9 -10 9 0 16 5 16 10 0 6 -4 10 -9 10 -6 0
-13 -4 -16 -10z"/>
<path d="M12900 8020 c-12 -8 -9 -10 13 -10 15 0 27 5 27 10 0 13 -20 13 -40
0z"/>
<path d="M12898 7983 c6 -2 18 -2 25 0 6 3 1 5 -13 5 -14 0 -19 -2 -12 -5z"/>
<path d="M4940 7220 c0 -5 5 -10 10 -10 6 0 10 5 10 10 0 6 -4 10 -10 10 -5 0
-10 -4 -10 -10z"/>
<path d="M5188 7073 c6 -2 18 -2 25 0 6 3 1 5 -13 5 -14 0 -19 -2 -12 -5z"/>
<path d="M5220 7000 c0 -19 3 -21 12 -12 9 9 9 15 0 24 -9 9 -12 7 -12 -12z"/>
<path d="M9160 6420 c0 -5 5 -10 11 -10 5 0 7 5 4 10 -3 6 -8 10 -11 10 -2 0
-4 -4 -4 -10z"/>
<path d="M3835 6750 c-3 -5 -1 -10 4 -10 6 0 11 5 11 10 0 6 -2 10 -4 10 -3 0
-8 -4 -11 -10z"/>
<path d="M3910 6239 c-61 -29 -73 -45 -42 -56 9 -4 20 -11 23 -16 4 -5 10 0
14 12 9 28 42 27 48 -1 4 -20 4 -19 6 5 0 17 7 27 16 27 16 0 19 -18 6 -38
-12 -19 11 -77 44 -112 16 -17 32 -30 37 -30 15 0 8 24 -13 47 -19 19 -20 25
-9 38 8 10 25 15 44 13 24 -2 31 -8 30 -24 0 -16 4 -20 20 -16 20 4 46 29 46
43 0 3 -11 4 -24 2 -20 -4 -25 0 -28 18 -2 16 -9 23 -21 22 -9 -2 -25 -4 -34
-5 -9 -2 -22 6 -28 17 -5 11 -25 34 -42 51 l-32 32 -61 -29z"/>
<path d="M4333 6213 c-13 -3 -29 -13 -36 -23 -7 -10 -26 -20 -42 -22 -40 -4
-47 -39 -11 -56 23 -10 26 -9 32 13 8 32 34 33 34 2 0 -29 -18 -47 -38 -40
-13 5 -14 1 -8 -28 16 -73 18 -107 7 -113 -22 -14 -10 -26 24 -26 19 0 35 4
35 9 0 5 10 11 23 13 18 2 23 10 25 43 2 22 12 49 23 61 10 11 16 24 12 27 -3
4 1 7 11 7 9 0 21 11 26 24 5 13 14 27 19 31 6 3 11 14 11 24 0 28 -95 63
-147 54z"/>
<path d="M3742 6147 c34 -34 90 -48 104 -26 3 6 -1 18 -9 27 -15 14 -17 14
-23 -1 -5 -15 -9 -15 -34 -2 -37 19 -56 20 -38 2z"/>
<path d="M3730 6081 c0 -10 19 -25 25 -20 1 2 -3 10 -11 17 -8 7 -14 8 -14 3z"/>
<path d="M4504 6050 c-7 -33 -19 -46 -29 -30 -3 5 -19 10 -36 10 -28 0 -29 -2
-29 -45 l0 -46 35 7 c28 5 35 3 35 -10 0 -9 -4 -16 -10 -16 -5 0 -10 -7 -10
-15 0 -22 43 -19 63 5 9 11 31 23 47 27 35 7 40 30 8 38 -24 6 -48 45 -48 76
0 32 -20 31 -26 -1z"/>
<path d="M4016 6012 c-8 -14 39 -49 75 -54 27 -5 38 -2 46 12 17 26 -2 38 -53
32 -29 -3 -44 -1 -44 7 0 13 -16 15 -24 3z"/>
<path d="M3986 5966 c3 -9 11 -16 16 -16 13 0 5 23 -10 28 -7 2 -10 -2 -6 -12z"/>
<path d="M4755 5950 c3 -5 8 -10 11 -10 2 0 4 5 4 10 0 6 -5 10 -11 10 -5 0
-7 -4 -4 -10z"/>
<path d="M4130 5876 c0 -9 5 -16 10 -16 6 0 10 4 10 9 0 6 -4 13 -10 16 -5 3
-10 -1 -10 -9z"/>
<path d="M4190 5790 c0 -5 7 -10 16 -10 8 0 12 5 9 10 -3 6 -10 10 -16 10 -5
0 -9 -4 -9 -10z"/>
<path d="M5515 5710 c3 -5 8 -10 11 -10 2 0 4 5 4 10 0 6 -5 10 -11 10 -5 0
-7 -4 -4 -10z"/>
<path d="M5541 5664 c0 -11 3 -14 6 -6 3 7 2 16 -1 19 -3 4 -6 -2 -5 -13z"/>
<path d="M5575 5560 c3 -5 8 -10 11 -10 2 0 4 5 4 10 0 6 -5 10 -11 10 -5 0
-7 -4 -4 -10z"/>
<path d="M2970 4688 c-42 -53 -89 -130 -100 -164 -22 -67 28 -166 128 -254
134 -118 358 -267 426 -284 29 -7 35 8 10 22 -13 7 -16 19 -12 56 4 36 2 48
-11 56 -13 7 -14 12 -4 29 12 18 10 21 -13 27 -36 9 -51 -8 -36 -41 15 -33 15
-85 1 -85 -21 0 -75 39 -100 72 -38 51 -202 228 -211 228 -4 0 -19 23 -33 50
-23 46 -25 54 -14 93 7 23 11 77 10 120 -2 50 2 83 9 92 10 12 9 15 -6 14 -11
0 -30 -14 -44 -31z"/>
<path d="M3246 4584 c-10 -25 -7 -33 15 -44 26 -15 32 -9 24 23 -8 30 -31 42
-39 21z"/>
<path d="M4920 4555 c0 -8 5 -15 10 -15 6 0 10 7 10 15 0 8 -4 15 -10 15 -5 0
-10 -7 -10 -15z"/>
<path d="M3140 4500 c0 -5 5 -10 10 -10 6 0 10 5 10 10 0 6 -4 10 -10 10 -5 0
-10 -4 -10 -10z"/>
<path d="M3180 4490 c0 -5 5 -10 10 -10 6 0 10 -23 10 -50 0 -43 4 -52 23 -61
12 -5 33 -16 45 -23 13 -8 32 -11 43 -9 15 4 17 9 8 26 -13 23 -55 64 -72 70
-9 3 -8 8 2 20 21 26 6 47 -34 47 -19 0 -35 -4 -35 -10z"/>
<path d="M4937 4389 c5 -24 0 -36 -22 -59 -31 -32 -30 -51 1 -22 42 38 57 95
29 105 -11 5 -13 0 -8 -24z"/>
<path d="M4795 4210 c-10 -11 -16 -22 -13 -25 3 -3 13 4 23 15 10 11 16 22 13
25 -3 3 -13 -4 -23 -15z"/>
<path d="M4715 4150 c-3 -5 -1 -10 4 -10 6 0 11 5 11 10 0 6 -2 10 -4 10 -3 0
-8 -4 -11 -10z"/>
<path d="M4281 2414 c0 -11 3 -14 6 -6 3 7 2 16 -1 19 -3 4 -6 -2 -5 -13z"/>
<path d="M4555 2380 c-26 -4 -30 -10 -33 -43 l-3 -37 40 0 c44 0 46 1 55 46 8
36 -7 44 -59 34z"/>
<path d="M5028 2353 c7 -3 16 -2 19 1 4 3 -2 6 -13 5 -11 0 -14 -3 -6 -6z"/>
<path d="M5103 2333 c9 -2 25 -2 35 0 9 3 1 5 -18 5 -19 0 -27 -2 -17 -5z"/>
<path d="M4708 2273 c6 -2 18 -2 25 0 6 3 1 5 -13 5 -14 0 -19 -2 -12 -5z"/>
<path d="M4548 2023 c7 -3 16 -2 19 1 4 3 -2 6 -13 5 -11 0 -14 -3 -6 -6z"/>
<path d="M4171 1994 c0 -11 3 -14 6 -6 3 7 2 16 -1 19 -3 4 -6 -2 -5 -13z"/>
<path d="M4266 1904 c-10 -26 -7 -94 5 -94 6 0 22 9 36 20 14 11 31 20 38 20
12 0 25 29 25 58 0 19 -96 16 -104 -4z"/>
<path d="M4192 1845 c0 -16 2 -22 5 -12 2 9 2 23 0 30 -3 6 -5 -1 -5 -18z"/>
<path d="M5168 1743 c12 -2 30 -2 40 0 9 3 -1 5 -23 4 -22 0 -30 -2 -17 -4z"/>
<path d="M17445 4159 c-4 -6 -5 -12 -2 -15 2 -3 7 2 10 11 7 17 1 20 -8 4z"/>
<path d="M17437 4113 c-9 -2 -15 -9 -12 -14 9 -14 22 -11 29 6 3 8 4 14 3 14
-1 -1 -10 -3 -20 -6z"/>
<path d="M17080 3839 c0 -5 4 -7 10 -4 5 3 12 -6 16 -20 3 -14 8 -24 11 -22 9
10 -10 57 -23 57 -8 0 -14 -5 -14 -11z"/>
<path d="M17037 3804 c-4 -4 -7 -14 -7 -23 0 -11 3 -12 11 -4 6 6 10 16 7 23
-2 6 -7 8 -11 4z"/>
<path d="M17010 3745 c0 -8 8 -15 18 -14 10 0 12 3 4 6 -6 2 -10 9 -6 14 3 5
0 9 -5 9 -6 0 -11 -7 -11 -15z"/>
<path d="M16903 3633 c-14 -28 -8 -47 10 -36 7 4 5 -1 -3 -11 -8 -11 -16 -14
-18 -7 -6 18 -19 13 -25 -9 -4 -15 0 -20 15 -20 10 0 28 -4 38 -10 16 -8 18
-5 18 25 0 19 -4 35 -8 35 -5 0 -10 13 -12 30 l-3 30 -12 -27z"/>
<path d="M16177 3643 c-4 -3 -7 -16 -8 -27 0 -12 -3 -15 -6 -8 -4 10 -8 10
-19 1 -12 -10 -13 -9 -8 5 5 13 -1 11 -20 -7 -14 -13 -26 -27 -26 -30 0 -7 44
-16 108 -22 55 -5 92 -19 92 -35 0 -6 -10 -6 -26 0 -14 6 -33 10 -42 10 -15 0
-15 -2 -2 -10 13 -9 13 -10 0 -10 -8 0 -26 3 -39 7 -23 6 -23 7 -5 14 14 6 10
8 -17 8 -46 1 -79 -30 -59 -54 7 -9 19 -14 27 -11 7 3 21 -3 30 -14 22 -26 48
-25 66 1 15 21 15 21 38 -10 13 -18 29 -29 35 -27 7 3 14 0 16 -6 3 -7 11 -6
27 3 16 10 21 21 18 42 -3 21 1 27 15 27 22 0 22 3 4 38 -21 40 -87 96 -116
98 -14 2 -31 3 -38 3 -8 1 -10 6 -6 14 6 10 4 10 -7 0 -16 -15 -33 -17 -24 -3
7 11 2 13 -8 3z"/>
<path d="M16535 3489 c-50 -27 -50 -28 -60 -93 -5 -36 -16 -71 -22 -78 -7 -6
-13 -16 -13 -21 0 -5 -8 -20 -19 -33 -24 -31 -14 -90 22 -126 32 -32 36 -68 7
-68 -10 0 -30 11 -44 25 -29 29 -46 31 -87 9 -24 -12 -30 -21 -27 -42 3 -25 0
-27 -34 -27 -48 0 -116 -49 -98 -70 6 -7 23 -13 38 -13 47 2 111 -14 116 -28
7 -17 5 -17 -116 -18 -100 -1 -114 5 -85 36 11 13 21 38 14 38 -2 0 -24 -7
-50 -16 -39 -13 -47 -20 -47 -41 0 -13 -4 -33 -10 -43 -8 -14 -5 -19 13 -24
12 -3 26 -1 31 4 5 5 16 5 25 1 19 -10 52 -22 179 -66 51 -18 96 -36 100 -40
4 -5 1 -5 -5 -1 -7 4 -13 3 -13 -2 0 -5 -19 -10 -42 -10 -70 0 -168 -9 -174
-15 -3 -3 -3 -24 1 -46 6 -38 9 -41 60 -56 29 -8 59 -15 67 -15 14 0 74 -40
76 -50 0 -3 5 -17 11 -32 10 -26 9 -27 -15 -18 -35 14 -102 9 -115 -7 -8 -9
-15 -10 -24 -3 -7 6 -26 13 -41 15 -39 5 -65 12 -88 21 -15 6 -17 4 -11 -6 5
-9 4 -11 -3 -6 -7 4 -12 14 -12 21 0 9 -6 12 -17 8 -12 -5 -14 -3 -8 7 6 10 3
12 -12 8 -17 -5 -26 4 -48 43 -23 43 -25 53 -15 83 6 18 7 41 4 51 -5 13 -4
16 4 11 13 -8 15 1 12 54 -1 19 -7 40 -14 45 -7 6 -12 18 -10 28 1 9 -2 14 -8
11 -14 -9 -29 17 -22 41 4 16 3 17 -5 5 -8 -11 -11 -12 -11 -2 0 7 -4 11 -9 7
-6 -3 -9 25 -7 70 2 76 -7 95 -24 50 -5 -13 -19 -34 -30 -45 -13 -13 -20 -33
-20 -53 1 -18 -2 -50 -5 -72 -4 -22 -8 -53 -9 -70 -2 -16 -7 -39 -11 -49 -6
-13 -5 -17 2 -13 7 5 9 0 6 -13 -3 -11 -10 -20 -17 -20 -6 0 -4 -5 4 -10 13
-8 12 -10 -4 -10 -15 0 -16 -3 -6 -15 7 -8 21 -15 31 -15 16 0 17 -3 7 -25 -6
-14 -15 -25 -20 -25 -4 0 -8 -7 -8 -15 0 -21 -17 -19 -24 3 -3 9 -3 -1 0 -23
3 -21 12 -52 20 -67 8 -15 14 -37 14 -49 0 -12 11 -37 25 -54 13 -18 22 -35
20 -39 -3 -3 -2 -4 2 -1 3 3 19 -11 36 -30 16 -19 36 -35 43 -35 8 0 13 -3 12
-7 -4 -19 15 -40 31 -36 19 5 55 -23 46 -37 -3 -4 5 -10 17 -13 12 -4 19 -9
15 -13 -9 -9 71 -67 145 -105 75 -38 218 -79 277 -79 44 0 48 2 66 38 10 20
27 46 36 57 19 21 59 90 84 143 8 17 22 32 31 32 8 0 13 4 9 9 -3 5 -1 12 5
16 5 3 10 -1 10 -9 0 -9 11 -23 25 -32 14 -9 22 -20 19 -25 -9 -14 16 -51 75
-113 33 -35 45 -51 29 -41 -16 9 -28 22 -28 27 0 5 -5 6 -11 2 -6 -3 -15 0
-20 7 -7 11 -9 10 -9 -4 0 -10 -4 -16 -9 -13 -5 3 1 -24 14 -62 34 -98 94
-150 217 -191 51 -17 103 -33 115 -35 13 -2 28 -8 36 -14 7 -6 44 -25 82 -41
39 -17 62 -25 51 -18 -10 6 -33 22 -51 34 -19 12 -36 19 -38 16 -3 -2 -23 7
-46 21 -22 14 -43 26 -46 26 -3 0 -30 20 -61 45 -53 44 -66 49 -110 46 -15 -2
-33 12 -57 41 -69 86 -107 167 -42 90 20 -23 60 -52 93 -68 31 -15 71 -41 87
-59 50 -52 108 -92 165 -114 29 -11 57 -26 61 -33 4 -7 10 -10 13 -7 9 9 -95
89 -114 89 -10 0 -20 7 -24 15 -3 8 -12 15 -21 15 -8 0 -15 5 -15 11 0 5 -4 8
-9 5 -10 -6 -75 54 -91 84 -8 16 -8 20 2 18 9 -2 13 11 14 42 2 53 25 120 60
173 14 21 31 61 37 89 10 42 19 55 55 80 25 17 42 37 42 48 0 11 5 20 11 20 5
0 8 4 4 9 -3 6 3 14 13 20 10 5 24 21 31 35 8 14 17 24 20 23 3 -1 8 3 9 8 2
6 8 18 14 29 7 13 7 16 -1 11 -7 -4 -18 -2 -25 4 -39 33 -170 14 -214 -30 -42
-43 -52 -57 -52 -74 0 -9 -7 -18 -15 -21 -8 -3 -17 -14 -20 -25 -4 -10 -13
-19 -20 -19 -8 0 -17 -5 -21 -12 -4 -7 -3 -8 4 -4 7 4 12 2 12 -3 0 -6 -4 -11
-9 -11 -5 0 -14 -13 -21 -30 -7 -16 -16 -30 -21 -30 -4 0 -15 -13 -25 -28 -14
-24 -23 -29 -55 -28 -45 2 -56 10 -40 30 7 8 9 21 5 27 -5 8 -3 9 6 4 10 -6
12 -4 7 8 -4 10 -2 14 7 11 7 -3 13 1 14 8 5 41 9 56 26 87 10 18 13 30 7 27
-6 -4 -11 0 -11 8 0 9 7 16 15 16 19 0 43 57 51 123 4 29 14 62 22 75 l15 23
19 -21 c17 -18 68 -29 68 -14 0 3 -11 15 -24 25 -35 28 -39 57 -10 84 13 12
24 27 24 34 0 20 47 35 73 24 13 -6 31 -7 45 -2 12 5 22 4 22 -1 0 -18 -46
-60 -70 -63 -14 -2 -25 -10 -25 -18 0 -20 33 -12 77 18 33 22 76 88 82 125 1
7 10 25 20 41 17 25 17 29 2 51 -21 33 -52 41 -81 22 -29 -19 -62 -21 -68 -3
-2 6 -16 -13 -30 -43 -58 -121 -96 -178 -115 -166 -17 10 -4 57 23 80 23 20
25 27 16 45 -15 28 -20 27 -32 -9 -15 -40 -37 -38 -45 5 -7 42 -21 54 -61 57
-18 1 -30 5 -27 9 6 10 -41 17 -71 11 -14 -2 -25 -8 -25 -13 0 -11 3 -11 37 2
l28 10 -23 -21 c-14 -13 -31 -20 -43 -17 -12 3 -19 0 -19 -9 0 -17 -16 -18
-27 -1 -11 17 -43 18 -36 1 3 -8 0 -14 -6 -14 -7 0 -14 7 -17 15 -4 8 -16 15
-29 15 -30 0 -49 24 -50 66 -1 19 -5 37 -8 40 -3 4 -3 14 2 23 5 9 11 35 14
59 4 31 2 42 -8 42 -22 0 -13 38 11 49 20 9 24 6 38 -23 20 -42 41 -60 61 -52
9 3 39 -3 68 -14 29 -11 60 -20 69 -20 9 0 18 -6 21 -12 3 -9 13 -5 31 11 20
19 29 22 38 13 7 -7 25 -12 40 -12 48 0 60 73 24 150 -26 54 -93 141 -118 154
-13 6 -66 13 -118 15 -52 1 -97 4 -100 6 -3 1 -27 -10 -55 -26z m25 -149 c0
-5 -5 -10 -11 -10 -5 0 -7 5 -4 10 3 6 8 10 11 10 2 0 4 -4 4 -10z m178 -39
c-1 -9 1 -22 5 -28 10 -16 -9 -17 -54 -2 -43 15 -59 28 -25 22 20 -4 28 0 37
21 10 20 15 23 26 14 8 -6 13 -18 11 -27z m-241 -303 c18 -39 40 -123 35 -136
-7 -22 -27 -13 -85 39 -55 49 -69 69 -46 69 6 0 24 11 41 25 36 31 42 31 55 3z
m651 -25 c17 -33 2 -47 -24 -22 -13 12 -21 26 -18 30 9 15 33 10 42 -8z m-898
-123 c0 -6 -6 -10 -12 -10 -22 0 -41 17 -34 29 8 13 46 -3 46 -19z m662 7 c6
-12 5 -17 -2 -17 -6 0 -9 -8 -6 -17 5 -15 -1 -18 -27 -19 -17 -1 -25 0 -16 3
9 2 19 14 21 27 4 19 1 22 -14 18 -17 -4 -25 8 -13 20 11 10 48 1 57 -15z
m-463 -116 c12 -8 12 -12 2 -25 -8 -9 -19 -16 -27 -16 -15 0 -44 27 -44 41 0
12 51 12 69 0z m-629 -210 c-6 -12 -15 -19 -20 -16 -5 3 -2 14 8 24 22 22 27
19 12 -8z m1345 -61 c3 -5 1 -10 -4 -10 -6 0 -11 5 -11 10 0 6 2 10 4 10 3 0
8 -4 11 -10z m-1258 -126 c-9 -9 -28 6 -21 18 4 6 10 6 17 -1 6 -6 8 -13 4
-17z m803 5 c0 -6 -4 -7 -10 -4 -5 3 -10 11 -10 16 0 6 5 7 10 4 6 -3 10 -11
10 -16z m166 -381 c24 -22 57 -41 84 -48 73 -18 80 -21 80 -30 0 -4 -32 0 -71
10 -103 27 -165 83 -183 165 -6 27 -4 26 23 -15 16 -25 46 -62 67 -82z"/>
<path d="M15907 3443 c-3 -10 -8 -31 -12 -48 -6 -29 -6 -29 14 -11 22 20 28
60 12 71 -5 3 -12 -3 -14 -12z"/>
<path d="M16190 3390 c8 -5 31 -10 50 -10 19 0 42 5 50 10 11 7 -4 10 -50 10
-46 0 -61 -3 -50 -10z"/>
<path d="M16204 3115 c-10 -25 14 -46 36 -33 21 13 18 23 -11 38 -15 9 -21 7
-25 -5z"/>
<path d="M16835 3071 c-3 -5 -1 -12 5 -16 5 -3 10 1 10 9 0 18 -6 21 -15 7z"/>
<path d="M15478 2675 c-2 -2 -19 -5 -38 -8 -75 -10 -111 -36 -52 -38 l27 0
-25 -10 c-21 -9 -107 -49 -118 -55 -2 -1 8 -16 23 -32 l27 -30 84 44 c97 50
147 57 183 23 12 -12 24 -19 26 -17 8 8 -12 25 -64 57 -42 26 -61 31 -85 27
-20 -4 -27 -3 -21 3 13 13 84 17 108 7 10 -5 17 -4 17 3 0 9 -12 14 -72 26 -9
1 -18 1 -20 0z"/>
<path d="M15288 2655 c-2 -3 -29 -7 -59 -10 -30 -4 -63 -9 -73 -12 -19 -5 -19
-6 -1 -19 17 -13 17 -15 -11 -36 -16 -13 -78 -72 -138 -131 l-110 -109 25 -19
c13 -10 29 -19 36 -19 6 0 60 52 120 116 63 68 124 123 146 134 l38 17 -31 13
c-16 7 -30 16 -30 20 0 10 47 30 70 30 11 0 20 4 20 9 0 5 8 12 18 14 14 4 14
5 1 6 -9 0 -18 -1 -21 -4z"/>
<path d="M14961 2572 c-86 -76 -181 -171 -181 -182 0 -5 12 -12 27 -17 23 -8
32 -3 83 46 32 31 94 88 138 128 82 73 85 84 24 83 -18 -1 -48 -20 -91 -58z"/>
<path d="M17290 2601 c0 -5 7 -12 16 -15 14 -5 15 -4 4 9 -14 17 -20 19 -20 6z"/>
<path d="M17940 2566 c-16 -16 -12 -35 10 -48 11 -7 20 -20 20 -28 0 -9 7 -26
16 -38 8 -12 13 -22 10 -22 -3 0 4 -18 15 -40 12 -22 25 -40 29 -40 5 0 8 -12
6 -27 -1 -16 4 -35 11 -45 10 -11 11 -18 4 -23 -12 -7 -14 -44 -5 -69 3 -9 11
-13 17 -9 6 4 8 0 4 -10 -3 -10 -2 -17 3 -17 11 0 5 -37 -9 -54 -7 -9 -7 -16
0 -23 8 -8 8 -13 0 -17 -6 -4 -12 1 -12 11 -2 24 -2 25 6 48 6 15 3 14 -11 -5
-10 -14 -17 -29 -15 -35 10 -28 5 -161 -7 -174 -10 -10 -10 -16 0 -28 9 -11 9
-16 0 -22 -22 -13 -1 -107 22 -94 6 3 8 3 4 -2 -4 -4 -3 -14 3 -22 6 -7 8 -13
4 -13 -4 0 -2 -7 5 -15 9 -10 9 -15 1 -15 -6 0 -11 -5 -11 -11 0 -5 5 -7 10
-4 6 3 10 1 10 -5 0 -6 12 -9 28 -7 18 3 27 10 26 21 -2 14 2 17 22 15 3 0 17
20 29 45 17 34 22 56 18 86 -4 28 -2 40 7 40 10 0 10 3 1 14 -14 17 -27 111
-15 103 5 -3 9 7 9 23 0 16 -5 26 -11 23 -7 -2 -10 8 -9 27 1 18 -3 37 -10 43
-16 17 -34 95 -31 140 1 20 -2 37 -6 37 -5 0 -7 9 -3 19 3 11 2 22 -3 25 -14
9 -6 105 10 124 9 9 18 29 22 45 5 23 3 29 -19 37 -14 5 -28 16 -31 23 -3 8
-16 13 -30 11 -13 -1 -24 2 -24 6 0 12 -108 8 -120 -4z"/>
<path d="M15489 2520 c-30 -17 -73 -40 -96 -51 -45 -21 -48 -38 -9 -59 26 -13
61 0 122 46 57 44 137 44 154 1 5 -14 9 -16 9 -6 1 16 -41 77 -61 91 -25 15
-66 8 -119 -22z"/>
<path d="M17515 2330 c-55 -14 -84 -29 -97 -50 -7 -11 -19 -20 -26 -20 -8 0
-12 -6 -9 -14 3 -8 -1 -17 -9 -20 -9 -3 -13 -10 -9 -16 3 -5 -3 -26 -14 -47
-30 -59 -5 -129 30 -86 7 8 24 19 37 24 14 5 22 12 19 15 -9 10 36 55 50 50 7
-3 13 -2 13 2 0 4 24 7 53 7 49 1 54 -2 91 -42 21 -24 45 -43 53 -43 8 0 11
-4 8 -10 -8 -12 5 -13 24 -1 9 6 10 11 2 15 -8 5 -7 12 3 22 11 10 12 22 6 43
-4 16 -6 32 -2 35 3 3 0 6 -7 6 -8 0 -11 7 -7 15 3 8 1 15 -4 15 -6 0 -10 5
-10 11 0 22 -67 77 -106 88 -43 12 -47 12 -89 1z"/>
<path d="M15808 2215 c6 -11 20 -29 31 -39 12 -11 17 -22 12 -25 -12 -8 49
-171 83 -222 16 -24 34 -39 46 -39 11 0 20 2 20 5 0 20 -105 223 -123 238 -12
10 -15 15 -7 11 8 -4 -1 11 -20 32 -19 21 -39 44 -44 49 -5 6 -4 1 2 -10z"/>
<path d="M14647 2211 c-27 -6 -32 -14 -63 -116 -104 -338 -123 -418 -110 -469
6 -23 10 -24 69 -24 39 0 113 -12 195 -33 73 -18 134 -30 137 -27 5 5 155 602
152 603 -21 11 -198 58 -242 65 -65 11 -95 11 -138 1z m182 -77 l43 -6 -21
-21 c-16 -16 -31 -20 -69 -18 -47 2 -51 0 -82 -39 -31 -39 -33 -45 -22 -73 11
-28 10 -34 -12 -56 l-24 -24 -17 38 c-31 77 -31 77 38 150 57 59 68 67 93 62
16 -3 49 -9 73 -13z m85 -111 c9 -26 16 -54 16 -64 0 -24 -118 -131 -138 -125
-10 2 -41 8 -69 11 -63 8 -71 17 -38 39 17 11 37 14 67 10 40 -5 46 -3 81 34
38 39 38 40 24 74 -14 33 -14 37 6 56 26 26 31 23 51 -35z m-123 7 c37 -20 18
-80 -26 -80 -46 0 -60 48 -23 74 27 19 24 19 49 6z m-210 -260 c5 0 9 -4 9
-10 0 -12 -10 -13 -29 -1 -9 6 -11 16 -5 32 l8 24 4 -22 c2 -13 8 -23 13 -23z
m30 -7 c-10 -17 -10 -16 -11 3 0 23 13 41 18 25 2 -6 -1 -18 -7 -28z m64 27
c3 -5 -1 -10 -9 -10 -8 0 -18 -5 -22 -12 -5 -8 0 -9 15 -5 14 3 21 1 18 -6 -6
-19 -36 -20 -43 -3 -11 28 26 60 41 36z m50 -32 c8 24 25 30 25 8 0 -20 -27
-39 -45 -32 -16 6 -20 37 -7 50 4 4 10 -5 13 -21 7 -27 7 -27 14 -5z m69 4
c-6 -4 -10 -15 -8 -24 1 -12 -4 -18 -18 -18 -14 0 -18 5 -14 16 3 9 6 20 6 25
0 5 10 9 23 9 13 0 17 -3 11 -8z m66 -19 c0 -10 -4 -24 -9 -31 -6 -10 -10 -7
-13 12 -3 14 -3 28 0 31 11 11 22 4 22 -12z m-329 -63 c5 0 9 6 9 14 0 23 17
28 42 14 13 -6 31 -11 41 -9 11 1 17 -4 17 -18 0 -17 -5 -19 -37 -16 -21 2
-50 4 -65 4 -24 1 -28 5 -27 29 2 23 2 24 6 5 2 -13 9 -23 14 -23z m199 10
c12 -8 12 -10 -5 -10 -17 0 -17 -2 -5 -10 12 -8 12 -10 -5 -11 -11 0 -14 -3
-7 -6 7 -3 19 0 26 6 12 10 61 12 79 3 4 -2 3 -10 -4 -18 -8 -10 -8 -14 0 -14
6 0 11 5 11 10 0 6 9 10 20 10 20 0 28 -24 10 -35 -16 -10 -60 7 -60 24 0 12
-2 13 -8 3 -6 -9 -21 -11 -50 -6 -35 5 -42 10 -42 29 0 34 13 42 40 25z m-66
-15 c-4 -8 -8 -15 -10 -15 -2 0 -4 7 -4 15 0 8 4 15 10 15 5 0 7 -7 4 -15z"/>
<path d="M14570 1684 c0 -8 5 -12 10 -9 6 4 8 11 5 16 -9 14 -15 11 -15 -7z"/>
<path d="M14750 1649 c0 -5 5 -7 10 -4 6 3 10 8 10 11 0 2 -4 4 -10 4 -5 0
-10 -5 -10 -11z"/>
<path d="M16040 1993 c0 -18 -4 -24 -14 -20 -18 7 -12 -10 18 -62 15 -25 22
-62 27 -148 7 -97 12 -122 38 -176 17 -34 24 -52 15 -39 -9 12 -20 22 -24 22
-12 0 -20 -65 -30 -250 -5 -96 -13 -207 -16 -247 l-7 -72 62 19 c70 21 111 44
111 63 0 6 13 39 28 72 29 61 112 148 200 211 49 35 54 54 57 229 2 66 6 141
10 166 l7 46 -63 40 c-36 22 -110 54 -169 72 -58 19 -138 48 -177 67 l-73 33
0 -26z m157 -495 c-3 -8 -6 -5 -6 6 -1 11 2 17 5 13 3 -3 4 -12 1 -19z m10
-40 c-3 -8 -6 -5 -6 6 -1 11 2 17 5 13 3 -3 4 -12 1 -19z m21 -88 c0 -9 -3 -7
-8 5 -5 11 -8 29 -8 40 0 16 2 15 8 -5 4 -14 8 -32 8 -40z"/>
<path d="M17191 1766 c15 -15 156 -79 144 -66 -8 9 -13 19 -10 22 3 3 -1 11
-10 18 -9 8 -15 9 -15 2 0 -7 -18 -3 -42 8 -39 18 -78 27 -67 16z"/>
<path d="M15714 1743 c-21 -4 -21 -5 8 -76 31 -75 49 -97 81 -97 14 0 17 5 12
23 -12 39 -68 157 -74 156 -3 -1 -16 -4 -27 -6z"/>
<path d="M15630 1704 c0 -22 37 -104 45 -100 15 5 55 -12 55 -24 0 -5 -10 -9
-22 -7 -32 3 -37 -37 -8 -53 12 -6 27 -9 34 -7 6 3 20 -1 31 -9 30 -22 45 -17
45 15 0 21 -6 30 -22 34 -12 4 -28 1 -35 -5 -10 -8 -13 -5 -13 13 0 13 -12 52
-26 87 -24 55 -30 62 -56 62 -15 0 -28 -3 -28 -6z m91 -159 c-1 -15 -24 -12
-29 3 -3 9 2 13 12 10 10 -1 17 -7 17 -13z m69 -20 c0 -8 -7 -15 -15 -15 -8 0
-15 7 -15 15 0 8 7 15 15 15 8 0 15 -7 15 -15z"/>
<path d="M15583 1673 c-36 -7 -27 -29 17 -42 44 -13 53 -31 16 -31 -14 0 -27
-4 -30 -9 -10 -15 4 -40 25 -46 10 -3 28 -8 39 -11 17 -5 20 -1 19 28 0 27 -2
30 -9 13 -8 -18 -9 -17 -9 8 -1 33 -27 98 -38 96 -4 -1 -18 -4 -30 -6z m47
-98 c0 -8 -7 -15 -15 -15 -8 0 -15 7 -15 15 0 8 7 15 15 15 8 0 15 -7 15 -15z"/>
<path d="M15514 1615 c-9 -23 8 -49 33 -53 15 -2 22 4 27 24 8 31 9 30 -26 39
-21 6 -29 3 -34 -10z m46 -21 c0 -9 -7 -14 -17 -12 -25 5 -28 28 -4 28 12 0
21 -6 21 -16z"/>
<path d="M15829 1538 c-1 -2 -3 -15 -5 -30 -3 -27 0 -30 29 -32 15 -1 19 46 3
56 -11 8 -25 10 -27 6z m26 -18 c3 -5 1 -10 -4 -10 -6 0 -11 5 -11 10 0 6 2
10 4 10 3 0 8 -4 11 -10z m-5 -30 c0 -5 -2 -10 -4 -10 -3 0 -8 5 -11 10 -3 6
-1 10 4 10 6 0 11 -4 11 -10z"/>
<path d="M16798 1468 c0 -13 -1 -29 -1 -35 1 -7 -3 -13 -8 -13 -5 0 -7 -11 -3
-25 4 -15 2 -25 -5 -25 -6 0 -11 8 -12 18 0 12 -2 13 -6 3 -3 -8 -16 -24 -28
-35 -19 -17 -24 -36 -29 -98 -5 -52 -3 -78 4 -78 5 0 10 11 10 24 0 31 18 78
33 88 7 4 28 8 48 8 36 0 69 -25 82 -62 8 -24 28 -23 34 1 4 17 7 18 34 4 17
-8 33 -13 36 -10 9 9 -54 43 -145 79 -46 18 -80 34 -75 35 14 5 139 -44 202
-78 30 -16 56 -27 59 -25 4 5 31 121 32 138 0 15 -216 108 -251 108 -5 0 -10
-10 -11 -22z m60 -28 c2 -6 8 -7 13 -4 5 3 34 -5 64 -17 46 -19 54 -26 50 -43
-3 -12 -2 -15 1 -8 7 15 40 16 50 0 4 -6 3 -8 -2 -5 -6 3 -10 -16 -11 -44 0
-27 -2 -52 -5 -54 -5 -6 -92 36 -96 47 -2 5 -8 6 -13 2 -5 -3 -9 9 -9 25 0 29
2 30 20 19 11 -7 20 -16 20 -20 0 -4 7 -5 15 -2 11 4 15 -1 16 -17 1 -16 3
-19 6 -7 2 10 10 15 19 11 34 -13 10 9 -31 28 -25 12 -45 28 -45 36 0 12 -3
13 -13 5 -10 -9 -19 -7 -35 4 -24 16 -27 13 -34 -31 -5 -29 -23 -24 -26 8 -2
19 1 27 12 27 10 0 16 9 16 22 l0 22 -20 -22 c-12 -12 -24 -22 -27 -22 -4 0
-2 5 5 12 7 7 12 20 12 29 0 13 6 17 22 14 13 -3 24 -9 26 -15z m12 -61 c0 -5
5 -7 10 -4 6 4 10 -6 10 -23 0 -25 -3 -29 -20 -25 -14 4 -20 14 -20 34 0 16 5
29 10 29 6 0 10 -5 10 -11z"/>
<path d="M16821 1374 c0 -11 3 -14 6 -6 3 7 2 16 -1 19 -3 4 -6 -2 -5 -13z"/>
<path d="M14841 1286 c2 -2 36 -16 74 -31 80 -32 150 -76 166 -106 6 -12 8
-37 5 -58 -6 -34 -5 -35 9 -17 35 45 3 102 -84 149 -57 31 -188 80 -170 63z"/>
<path d="M17100 1094 c-56 -31 -133 -64 -137 -60 -3 3 4 11 16 18 28 17 27 26
-4 20 -23 -4 -61 -57 -47 -66 17 -9 83 8 92 23 8 16 48 32 113 46 15 3 27 12
27 20 0 18 -26 18 -60 -1z"/>
<path d="M15055 1028 c-10 -25 -36 -31 -55 -13 -16 15 -19 14 -39 -13 -15 -21
-27 -29 -41 -25 -14 4 -22 -2 -30 -21 -5 -14 -13 -26 -18 -26 -11 0 -33 -46
-26 -53 3 -3 21 1 39 9 19 8 59 14 90 14 37 0 55 4 55 13 0 6 11 33 24 59 13
27 19 52 15 60 -6 9 -9 9 -14 -4z"/>
<path d="M15203 930 c-3 -12 -17 -27 -32 -35 l-26 -14 38 -1 c36 0 37 1 37 35
0 39 -9 46 -17 15z"/>
<path d="M15280 892 c0 -20 28 -32 75 -31 l50 0 -60 19 c-70 23 -65 22 -65 12z"/>
<path d="M16965 870 c-26 -29 -11 -60 29 -60 18 0 47 -5 65 -11 22 -8 35 -8
44 -1 7 6 29 9 50 8 33 -3 39 1 57 31 l20 35 -37 -3 c-21 -2 -47 -9 -59 -16
-18 -12 -22 -10 -33 10 -16 31 -110 36 -136 7z"/>
<path d="M16830 861 c0 -5 7 -12 16 -15 22 -9 24 -8 24 9 0 8 -9 15 -20 15
-11 0 -20 -4 -20 -9z"/>
<path d="M16678 853 c-22 -6 -23 -19 -2 -27 17 -7 54 10 54 24 0 10 -21 11
-52 3z"/>
<path d="M16745 850 c-3 -5 3 -10 14 -10 12 0 21 5 21 10 0 6 -6 10 -14 10 -8
0 -18 -4 -21 -10z"/>
<path d="M17461 775 c-21 -113 -24 -171 -12 -191 9 -16 10 -12 6 21 -3 22 -2
60 4 85 5 25 9 35 10 23 1 -13 5 -23 10 -23 11 0 22 93 11 100 -4 3 -10 16
-12 30 -2 16 -8 0 -17 -45z"/>
<path d="M15924 719 c-3 -6 -1 -16 5 -22 9 -9 14 -8 21 3 9 15 4 30 -10 30 -5
0 -12 -5 -16 -11z"/>
<path d="M16928 699 c-22 -8 -28 -17 -28 -39 0 -23 7 -32 43 -49 24 -12 57
-21 74 -21 19 0 33 -6 37 -16 9 -23 18 -11 25 33 5 33 10 38 34 39 15 1 30 4
34 8 13 13 -10 21 -58 19 -36 -1 -49 3 -49 13 0 8 -10 14 -22 14 -13 0 -32 2
-43 5 -11 2 -32 -1 -47 -6z"/>
<path d="M15416 614 c-9 -23 -2 -28 13 -10 7 8 8 17 3 20 -6 3 -13 -1 -16 -10z"/>
<path d="M15685 609 c-10 -15 3 -25 16 -12 7 7 7 13 1 17 -6 3 -14 1 -17 -5z"/>
<path d="M15511 584 c0 -11 3 -14 6 -6 3 7 2 16 -1 19 -3 4 -6 -2 -5 -13z"/>
<path d="M17420 553 c0 -5 12 -20 28 -34 l27 -24 -25 30 c-14 17 -26 32 -27
34 -2 2 -3 0 -3 -6z"/>
<path d="M17046 477 l-28 -52 30 34 c17 19 29 38 26 42 -2 4 1 9 8 11 7 3 8 7
2 10 -5 4 -22 -17 -38 -45z"/>
<path d="M16980 350 c-6 -11 -8 -20 -6 -20 3 0 10 9 16 20 6 11 8 20 6 20 -3
0 -10 -9 -16 -20z"/>
</g>
</svg>
